<svg width="18" height="18" viewBox="0 0 18 18" fill="none" xmlns="http://www.w3.org/2000/svg">
<path d="M10.9723 13.3734C10.7578 13.3418 10.5574 13.5246 10.5293 13.7777C10.5047 14.0309 10.6594 14.2629 10.8773 14.291C12.5051 14.5195 13.1344 14.8957 13.282 15.0644C12.9937 15.4195 11.2852 15.9855 8.53594 15.9855C5.78672 15.9855 4.08164 15.416 3.78984 15.0644C3.9375 14.8992 4.56328 14.523 6.18047 14.2945C6.39844 14.2629 6.55312 14.0344 6.52851 13.7812C6.50039 13.5281 6.3 13.3488 6.08555 13.377C4.01836 13.6687 2.9707 14.2348 2.9707 15.0644C2.9707 16.8609 7.9664 16.9137 8.53594 16.9137C9.10547 16.9137 14.1012 16.8609 14.1012 15.0644C14.1047 14.2348 13.05 13.6652 10.9723 13.3734Z" fill="#FB791B"/>
<path d="M13.1662 6.13472C13.1662 7.59722 12.1783 9.11948 12.1677 9.13354L8.53962 14.7726L4.90095 9.11597C4.8904 9.1019 3.91306 7.60425 3.91306 6.13823C3.91306 3.55425 5.98727 1.4519 8.53962 1.4519C11.092 1.4519 13.1662 3.55073 13.1662 6.13472Z" fill="#029AAD"/>
<path d="M10.5961 6.02925C10.5961 7.17886 9.67498 8.11401 8.53943 8.11401C7.40388 8.11401 6.48279 7.17886 6.48279 6.02925C6.48279 4.87964 7.40388 3.948 8.53943 3.948C9.67498 3.948 10.5961 4.87964 10.5961 6.02925Z" fill="white"/>
</svg>
