<svg width="10" height="6" viewBox="0 0 10 6" fill="none" xmlns="http://www.w3.org/2000/svg">
<path d="M8.82295 0.822828L4.99995 4.64633L1.17695 0.822828C1.13001 0.775884 1.06634 0.749512 0.99995 0.749512C0.933562 0.749512 0.869893 0.775884 0.82295 0.822828C0.776006 0.869771 0.749634 0.93344 0.749634 0.999828C0.749634 1.06622 0.776006 1.12988 0.82295 1.17683L4.82295 5.17683C4.84617 5.20011 4.87376 5.21858 4.90413 5.23118C4.93451 5.24379 4.96707 5.25027 4.99995 5.25027C5.03283 5.25027 5.06539 5.24379 5.09577 5.23118C5.12614 5.21858 5.15373 5.20011 5.17695 5.17683L9.17695 1.17683C9.22389 1.12988 9.25027 1.06622 9.25027 0.999828C9.25027 0.93344 9.22389 0.869771 9.17695 0.822828C9.13001 0.775884 9.06634 0.749512 8.99995 0.749512C8.93356 0.749512 8.86989 0.775884 8.82295 0.822828Z" fill="black"/>
</svg>
