<svg width="20" height="21" viewBox="0 0 20 21" fill="none" xmlns="http://www.w3.org/2000/svg">
<path d="M19.9529 19.293L15.4139 14.754C16.7608 13.0464 17.4043 10.8888 17.2129 8.72241C17.0214 6.55604 16.0094 4.5447 14.3839 3.09984C12.7585 1.65499 10.6423 0.885838 8.46846 0.949729C6.29459 1.01362 4.22728 1.90573 2.68946 3.44355C1.15164 4.98137 0.25953 7.04868 0.19564 9.22255C0.131749 11.3964 0.900904 13.5125 2.34576 15.138C3.79061 16.7635 5.80195 17.7755 7.96832 17.9669C10.1347 18.1584 12.2923 17.5148 13.9999 16.168L18.5389 20.707L19.9529 19.293ZM8.74586 16C7.46029 16 6.20358 15.6187 5.13466 14.9045C4.06574 14.1903 3.23262 13.1751 2.74065 11.9874C2.24868 10.7997 2.11996 9.49274 2.37076 8.23187C2.62156 6.97099 3.24063 5.8128 4.14967 4.90376C5.05871 3.99472 6.2169 3.37565 7.47778 3.12485C8.73865 2.87405 10.0456 3.00277 11.2333 3.49474C12.421 3.98671 13.4362 4.81983 14.1504 5.88875C14.8646 6.95767 15.2459 8.21438 15.2459 9.49995C15.2437 11.2232 14.5582 12.8753 13.3397 14.0938C12.1212 15.3123 10.4691 15.9978 8.74586 16Z" fill="black"/>
</svg>
