<svg width="21" height="25" viewBox="0 0 21 25" fill="none" xmlns="http://www.w3.org/2000/svg">
<path d="M20.4124 26.1905H17.9181V23.6962C17.9181 22.7038 17.5238 21.7521 16.8222 21.0505C16.1205 20.3488 15.1688 19.9546 14.1766 19.9546H6.6936C5.70133 19.9546 4.74967 20.3488 4.048 21.0505C3.34634 21.7521 2.95205 22.7038 2.95205 23.6962V26.1905H0.457764V23.6962C0.457764 22.0423 1.11475 20.4562 2.28419 19.2868C3.4536 18.1173 5.03979 17.4604 6.6936 17.4604H14.1766C15.8304 17.4604 17.4166 18.1173 18.586 19.2868C19.7554 20.4562 20.4124 22.0423 20.4124 23.6962V26.1905ZM10.4351 14.966C9.45241 14.966 8.47931 14.7724 7.57145 14.3964C6.6636 14.0204 5.83872 13.4692 5.14384 12.7743C4.44895 12.0794 3.89776 11.2545 3.52169 10.3467C3.14562 9.43869 2.95205 8.46571 2.95205 7.48298C2.95205 6.50036 3.14562 5.52725 3.52169 4.61938C3.89776 3.7115 4.44895 2.88658 5.14384 2.19171C5.83872 1.49686 6.6636 0.945666 7.57145 0.569607C8.47931 0.193547 9.45241 0 10.4351 0C12.4197 0 14.323 0.788381 15.7263 2.19171C17.1297 3.59505 17.9181 5.49838 17.9181 7.48298C17.9181 9.46762 17.1297 11.371 15.7263 12.7743C14.323 14.1776 12.4197 14.966 10.4351 14.966ZM10.4351 12.4717C11.7581 12.4717 13.0271 11.9461 13.9626 11.0105C14.8981 10.075 15.4237 8.80607 15.4237 7.48298C15.4237 6.15988 14.8981 4.89104 13.9626 3.95548C13.0271 3.01992 11.7581 2.49433 10.4351 2.49433C9.11205 2.49433 7.84312 3.01992 6.90753 3.95548C5.97205 4.89104 5.44645 6.15988 5.44645 7.48298C5.44645 8.80607 5.97205 10.075 6.90753 11.0105C7.84312 11.9461 9.11205 12.4717 10.4351 12.4717Z" fill="white"/>
</svg>
