<svg width="66" height="48" viewBox="0 0 66 48" fill="none" xmlns="http://www.w3.org/2000/svg">
<path d="M17.8094 48C12.8094 48 8.60938 46.3 5.20938 42.9C1.87604 39.4333 0.209375 34.4667 0.209375 28C0.209375 22.8667 1.57604 18.2 4.30938 14C7.10938 9.73333 11.076 6.33333 16.2094 3.79999C21.4094 1.26666 26.8094 -5.00679e-06 32.4094 -5.00679e-06L34.4094 2.79999C32.7427 2.79999 30.6094 3.13333 28.0094 3.79999C25.4094 4.39999 22.8427 5.33333 20.3094 6.6C17.776 7.86667 15.676 9.46666 14.0094 11.4C11.476 14.3333 10.2094 16.7333 10.2094 18.6C10.7427 17.8667 11.9427 17.2333 13.8094 16.7C15.676 16.1 17.676 15.8 19.8094 15.8C25.1427 15.8 29.2094 18 32.0094 22.4C33.0094 17.9333 35.0094 14.0333 38.0094 10.7C41.076 7.36666 44.8094 4.76667 49.2094 2.9C53.676 0.966663 58.476 -5.00679e-06 63.6094 -5.00679e-06L65.6094 2.79999C63.9427 2.79999 61.8094 3.13333 59.2094 3.79999C56.6094 4.39999 54.0427 5.33333 51.5094 6.6C48.976 7.86667 46.876 9.46666 45.2094 11.4C42.676 14.3333 41.4094 16.7333 41.4094 18.6C41.9427 17.8667 43.1427 17.2333 45.0094 16.7C46.876 16.1 48.876 15.8 51.0094 15.8C53.9427 15.8 56.5094 16.5 58.7094 17.9C60.9094 19.3 62.6427 21.2 63.9094 23.6C65.176 25.9333 65.8094 28.5333 65.8094 31.4C65.8094 36.2 64.276 40.1667 61.2094 43.3C58.2094 46.4333 54.1427 48 49.0094 48C45.5427 48 42.4094 47.1333 39.6094 45.4C36.8094 43.6667 34.7427 41.2667 33.4094 38.2C32.1427 41.2667 30.176 43.6667 27.5094 45.4C24.8427 47.1333 21.6094 48 17.8094 48Z" fill="white"/>
</svg>
