<svg width="204" height="207" viewBox="0 0 204 207" fill="none" xmlns="http://www.w3.org/2000/svg">
<mask id="path-1-inside-1_25_30" fill="white">
<path fill-rule="evenodd" clip-rule="evenodd" d="M118.118 81.1814L129.63 94.8429L129.668 112.705L118.214 126.41L100.627 129.545L85.1368 120.644L78.9909 103.87L85.0652 87.0734L100.518 78.1129L118.118 81.1814ZM101.128 81.5326L116.387 84.1929L126.368 96.0372L126.401 111.523L116.471 123.405L101.223 126.123L87.7934 118.406L82.465 103.863L87.7313 89.3011L101.128 81.5326Z"/>
<path fill-rule="evenodd" clip-rule="evenodd" d="M141.891 90.3541L124.623 69.8618L98.2226 65.2591L75.0441 78.6998L65.9326 103.895L75.1515 129.055L98.3871 142.408L124.767 137.705L141.948 117.148L141.891 90.3541ZM122.892 72.8733L98.8331 68.6788L77.7102 80.9275L69.4067 103.888L77.808 126.817L98.9831 138.986L123.024 134.7L138.681 115.966L138.629 91.5483L122.892 72.8733Z"/>
<path fill-rule="evenodd" clip-rule="evenodd" d="M131.128 58.5422L154.152 85.8653L154.229 121.59L131.321 149L96.147 155.27L65.1662 137.467L52.8743 103.919L65.023 70.3262L95.9276 52.4053L131.128 58.5422ZM96.5382 55.825L129.397 61.5537L150.89 87.0595L150.962 120.408L129.577 145.995L96.743 151.848L67.8227 135.229L56.3484 103.913L67.689 72.5539L96.5382 55.825Z"/>
<path fill-rule="evenodd" clip-rule="evenodd" d="M166.414 81.3765L137.633 47.2226L93.6326 39.5515L55.0019 61.9526L39.8161 103.944L55.1808 145.878L93.9068 168.133L137.874 160.295L166.509 126.032L166.414 81.3765ZM135.902 50.2341L94.2432 42.9711L57.6679 64.1803L43.2901 103.938L57.8374 143.64L94.5028 164.711L136.13 157.29L163.242 124.85L163.152 82.5707L135.902 50.2341Z"/>
<path fill-rule="evenodd" clip-rule="evenodd" d="M144.138 35.9029L178.675 76.8877L178.789 130.475L144.427 171.59L91.6667 180.995L45.1955 154.289L26.7578 103.969L44.9807 53.579L91.3377 26.6976L144.138 35.9029ZM91.9482 30.1173L142.407 38.9145L175.413 78.0819L175.522 129.293L142.684 168.585L92.2627 177.573L47.8521 152.052L30.2319 103.962L47.6468 55.8067L91.9482 30.1173Z"/>
<path fill-rule="evenodd" clip-rule="evenodd" d="M190.936 72.3989L150.643 24.5833L89.0427 13.8438L34.9596 45.2054L13.6995 103.994L35.2102 162.701L89.4266 193.857L150.98 182.885L191.07 134.917L190.936 72.3989ZM148.912 27.5949L89.6533 17.2635L37.6257 47.4331L17.1736 103.987L37.8667 160.463L90.0226 190.435L149.237 179.88L187.802 133.735L187.674 73.5931L148.912 27.5949Z"/>
<path fill-rule="evenodd" clip-rule="evenodd" d="M203.197 67.9101L157.148 13.2637L86.7477 0.989983L24.9385 36.8318L0.64122 104.018L25.2249 171.112L87.1865 206.72L157.534 194.18L203.35 139.359L203.197 67.9101ZM155.417 16.2753L87.3583 4.40967L27.6046 39.0595L4.11531 104.012L27.8814 168.875L87.7824 203.298L155.79 191.175L200.083 138.177L199.935 69.1043L155.417 16.2753Z"/>
</mask>
<path fill-rule="evenodd" clip-rule="evenodd" d="M118.118 81.1814L129.63 94.8429L129.668 112.705L118.214 126.41L100.627 129.545L85.1368 120.644L78.9909 103.87L85.0652 87.0734L100.518 78.1129L118.118 81.1814ZM101.128 81.5326L116.387 84.1929L126.368 96.0372L126.401 111.523L116.471 123.405L101.223 126.123L87.7934 118.406L82.465 103.863L87.7313 89.3011L101.128 81.5326Z" fill="url(#paint0_radial_25_30)"/>
<path fill-rule="evenodd" clip-rule="evenodd" d="M141.891 90.3541L124.623 69.8618L98.2226 65.2591L75.0441 78.6998L65.9326 103.895L75.1515 129.055L98.3871 142.408L124.767 137.705L141.948 117.148L141.891 90.3541ZM122.892 72.8733L98.8331 68.6788L77.7102 80.9275L69.4067 103.888L77.808 126.817L98.9831 138.986L123.024 134.7L138.681 115.966L138.629 91.5483L122.892 72.8733Z" fill="url(#paint1_radial_25_30)"/>
<path fill-rule="evenodd" clip-rule="evenodd" d="M131.128 58.5422L154.152 85.8653L154.229 121.59L131.321 149L96.147 155.27L65.1662 137.467L52.8743 103.919L65.023 70.3262L95.9276 52.4053L131.128 58.5422ZM96.5382 55.825L129.397 61.5537L150.89 87.0595L150.962 120.408L129.577 145.995L96.743 151.848L67.8227 135.229L56.3484 103.913L67.689 72.5539L96.5382 55.825Z" fill="url(#paint2_radial_25_30)"/>
<path fill-rule="evenodd" clip-rule="evenodd" d="M166.414 81.3765L137.633 47.2226L93.6326 39.5515L55.0019 61.9526L39.8161 103.944L55.1808 145.878L93.9068 168.133L137.874 160.295L166.509 126.032L166.414 81.3765ZM135.902 50.2341L94.2432 42.9711L57.6679 64.1803L43.2901 103.938L57.8374 143.64L94.5028 164.711L136.13 157.29L163.242 124.85L163.152 82.5707L135.902 50.2341Z" fill="url(#paint3_radial_25_30)"/>
<path fill-rule="evenodd" clip-rule="evenodd" d="M144.138 35.9029L178.675 76.8877L178.789 130.475L144.427 171.59L91.6667 180.995L45.1955 154.289L26.7578 103.969L44.9807 53.579L91.3377 26.6976L144.138 35.9029ZM91.9482 30.1173L142.407 38.9145L175.413 78.0819L175.522 129.293L142.684 168.585L92.2627 177.573L47.8521 152.052L30.2319 103.962L47.6468 55.8067L91.9482 30.1173Z" fill="url(#paint4_radial_25_30)"/>
<path fill-rule="evenodd" clip-rule="evenodd" d="M190.936 72.3989L150.643 24.5833L89.0427 13.8438L34.9596 45.2054L13.6995 103.994L35.2102 162.701L89.4266 193.857L150.98 182.885L191.07 134.917L190.936 72.3989ZM148.912 27.5949L89.6533 17.2635L37.6257 47.4331L17.1736 103.987L37.8667 160.463L90.0226 190.435L149.237 179.88L187.802 133.735L187.674 73.5931L148.912 27.5949Z" fill="url(#paint5_radial_25_30)"/>
<path fill-rule="evenodd" clip-rule="evenodd" d="M203.197 67.9101L157.148 13.2637L86.7477 0.989983L24.9385 36.8318L0.64122 104.018L25.2249 171.112L87.1865 206.72L157.534 194.18L203.35 139.359L203.197 67.9101ZM155.417 16.2753L87.3583 4.40967L27.6046 39.0595L4.11531 104.012L27.8814 168.875L87.7824 203.298L155.79 191.175L200.083 138.177L199.935 69.1043L155.417 16.2753Z" fill="url(#paint6_radial_25_30)"/>
<path fill-rule="evenodd" clip-rule="evenodd" d="M118.118 81.1814L129.63 94.8429L129.668 112.705L118.214 126.41L100.627 129.545L85.1368 120.644L78.9909 103.87L85.0652 87.0734L100.518 78.1129L118.118 81.1814ZM101.128 81.5326L116.387 84.1929L126.368 96.0372L126.401 111.523L116.471 123.405L101.223 126.123L87.7934 118.406L82.465 103.863L87.7313 89.3011L101.128 81.5326Z" stroke="black" stroke-width="2" mask="url(#path-1-inside-1_25_30)"/>
<path fill-rule="evenodd" clip-rule="evenodd" d="M141.891 90.3541L124.623 69.8618L98.2226 65.2591L75.0441 78.6998L65.9326 103.895L75.1515 129.055L98.3871 142.408L124.767 137.705L141.948 117.148L141.891 90.3541ZM122.892 72.8733L98.8331 68.6788L77.7102 80.9275L69.4067 103.888L77.808 126.817L98.9831 138.986L123.024 134.7L138.681 115.966L138.629 91.5483L122.892 72.8733Z" stroke="black" stroke-width="2" mask="url(#path-1-inside-1_25_30)"/>
<path fill-rule="evenodd" clip-rule="evenodd" d="M131.128 58.5422L154.152 85.8653L154.229 121.59L131.321 149L96.147 155.27L65.1662 137.467L52.8743 103.919L65.023 70.3262L95.9276 52.4053L131.128 58.5422ZM96.5382 55.825L129.397 61.5537L150.89 87.0595L150.962 120.408L129.577 145.995L96.743 151.848L67.8227 135.229L56.3484 103.913L67.689 72.5539L96.5382 55.825Z" stroke="black" stroke-width="2" mask="url(#path-1-inside-1_25_30)"/>
<path fill-rule="evenodd" clip-rule="evenodd" d="M166.414 81.3765L137.633 47.2226L93.6326 39.5515L55.0019 61.9526L39.8161 103.944L55.1808 145.878L93.9068 168.133L137.874 160.295L166.509 126.032L166.414 81.3765ZM135.902 50.2341L94.2432 42.9711L57.6679 64.1803L43.2901 103.938L57.8374 143.64L94.5028 164.711L136.13 157.29L163.242 124.85L163.152 82.5707L135.902 50.2341Z" stroke="black" stroke-width="2" mask="url(#path-1-inside-1_25_30)"/>
<path fill-rule="evenodd" clip-rule="evenodd" d="M144.138 35.9029L178.675 76.8877L178.789 130.475L144.427 171.59L91.6667 180.995L45.1955 154.289L26.7578 103.969L44.9807 53.579L91.3377 26.6976L144.138 35.9029ZM91.9482 30.1173L142.407 38.9145L175.413 78.0819L175.522 129.293L142.684 168.585L92.2627 177.573L47.8521 152.052L30.2319 103.962L47.6468 55.8067L91.9482 30.1173Z" stroke="black" stroke-width="2" mask="url(#path-1-inside-1_25_30)"/>
<path fill-rule="evenodd" clip-rule="evenodd" d="M190.936 72.3989L150.643 24.5833L89.0427 13.8438L34.9596 45.2054L13.6995 103.994L35.2102 162.701L89.4266 193.857L150.98 182.885L191.07 134.917L190.936 72.3989ZM148.912 27.5949L89.6533 17.2635L37.6257 47.4331L17.1736 103.987L37.8667 160.463L90.0226 190.435L149.237 179.88L187.802 133.735L187.674 73.5931L148.912 27.5949Z" stroke="black" stroke-width="2" mask="url(#path-1-inside-1_25_30)"/>
<path fill-rule="evenodd" clip-rule="evenodd" d="M203.197 67.9101L157.148 13.2637L86.7477 0.989983L24.9385 36.8318L0.64122 104.018L25.2249 171.112L87.1865 206.72L157.534 194.18L203.35 139.359L203.197 67.9101ZM155.417 16.2753L87.3583 4.40967L27.6046 39.0595L4.11531 104.012L27.8814 168.875L87.7824 203.298L155.79 191.175L200.083 138.177L199.935 69.1043L155.417 16.2753Z" stroke="black" stroke-width="2" mask="url(#path-1-inside-1_25_30)"/>
<defs>
<radialGradient id="paint0_radial_25_30" cx="0" cy="0" r="1" gradientUnits="userSpaceOnUse" gradientTransform="translate(102.668 108.065) rotate(101.445) scale(118.699 120.052)">
<stop stop-color="white" stop-opacity="0.81"/>
<stop offset="1" stop-color="white" stop-opacity="0"/>
</radialGradient>
<radialGradient id="paint1_radial_25_30" cx="0" cy="0" r="1" gradientUnits="userSpaceOnUse" gradientTransform="translate(102.668 108.065) rotate(101.445) scale(118.699 120.052)">
<stop stop-color="white" stop-opacity="0.81"/>
<stop offset="1" stop-color="white" stop-opacity="0"/>
</radialGradient>
<radialGradient id="paint2_radial_25_30" cx="0" cy="0" r="1" gradientUnits="userSpaceOnUse" gradientTransform="translate(102.668 108.065) rotate(101.445) scale(118.699 120.052)">
<stop stop-color="white" stop-opacity="0.81"/>
<stop offset="1" stop-color="white" stop-opacity="0"/>
</radialGradient>
<radialGradient id="paint3_radial_25_30" cx="0" cy="0" r="1" gradientUnits="userSpaceOnUse" gradientTransform="translate(102.668 108.065) rotate(101.445) scale(118.699 120.052)">
<stop stop-color="white" stop-opacity="0.81"/>
<stop offset="1" stop-color="white" stop-opacity="0"/>
</radialGradient>
<radialGradient id="paint4_radial_25_30" cx="0" cy="0" r="1" gradientUnits="userSpaceOnUse" gradientTransform="translate(102.668 108.065) rotate(101.445) scale(118.699 120.052)">
<stop stop-color="white" stop-opacity="0.81"/>
<stop offset="1" stop-color="white" stop-opacity="0"/>
</radialGradient>
<radialGradient id="paint5_radial_25_30" cx="0" cy="0" r="1" gradientUnits="userSpaceOnUse" gradientTransform="translate(102.668 108.065) rotate(101.445) scale(118.699 120.052)">
<stop stop-color="white" stop-opacity="0.81"/>
<stop offset="1" stop-color="white" stop-opacity="0"/>
</radialGradient>
<radialGradient id="paint6_radial_25_30" cx="0" cy="0" r="1" gradientUnits="userSpaceOnUse" gradientTransform="translate(102.668 108.065) rotate(101.445) scale(118.699 120.052)">
<stop stop-color="white" stop-opacity="0.81"/>
<stop offset="1" stop-color="white" stop-opacity="0"/>
</radialGradient>
</defs>
</svg>
