<svg width="150" height="137" viewBox="0 0 150 137" fill="none" xmlns="http://www.w3.org/2000/svg">
<path fill-rule="evenodd" clip-rule="evenodd" d="M27.7633 11.0961L0.616949 80.2387L44.2496 136.26L120.799 130.607L149.82 59.9937L103.291 0.254431L27.7633 11.0961ZM125.742 32.8616L103.102 3.7944L91.9093 31.0292L114.829 60.4566L125.742 32.8616ZM127.399 34.9899L147.157 60.3577L135.964 87.5925L116.487 62.5849L127.399 34.9899ZM115.495 65.0935L134.947 90.0684L119.684 127.207L100.614 102.723L115.495 65.0935ZM98.7733 104.141L117.746 128.502L77.3541 131.485L59.5314 108.601L98.7733 104.141ZM57.8577 106.453L97.0996 101.993L73.7878 72.0619L35.1333 76.9882L35.059 77.1807L57.8577 106.453ZM56.825 108.909L74.5685 131.69L45.3188 133.85L28.4085 112.139L56.825 108.909ZM26.7348 109.99L55.1514 106.76L32.4168 77.5707L32.5128 77.3222L4.11059 80.942L26.7348 109.99ZM98.9568 100.595L113.837 62.9652L90.8918 33.5051L75.6289 70.6434L98.9568 100.595ZM88.6031 32.9599L73.4799 69.7582L36.0853 74.524L50.0018 38.501L88.6031 32.9599ZM47.364 38.8796L33.4648 74.858L3.73897 78.6464L17.679 43.1408L47.364 38.8796ZM18.6559 40.6526L48.3243 36.3938L58.9179 8.97195L29.4324 13.2045L18.6559 40.6526ZM61.5557 8.5933L50.9621 36.0152L89.6286 30.4648L100.941 2.93976L61.5557 8.5933Z" fill="url(#paint0_linear_25_29)"/>
<defs>
<linearGradient id="paint0_linear_25_29" x1="-0.369226" y1="81.985" x2="152.94" y2="62.6787" gradientUnits="userSpaceOnUse">
<stop stop-color="white"/>
<stop offset="1" stop-color="#3C3C3C"/>
</linearGradient>
</defs>
</svg>
