<svg width="548" height="397" viewBox="0 0 548 397" fill="none" xmlns="http://www.w3.org/2000/svg">
<path d="M17.0458 199.365L19.2645 194.382L18.083 192.689L14.2799 195.403L13.6389 194.485L22.7428 187.989L24.666 190.744C25.3804 191.767 25.6776 192.714 25.5577 193.586C25.444 194.467 24.992 195.189 24.2019 195.753C23.542 196.224 22.8433 196.434 22.1057 196.384C21.383 196.336 20.6927 195.99 20.0348 195.346L17.8151 200.467L17.0458 199.365ZM18.8254 192.16L20.1167 194.01C20.6174 194.727 21.1666 195.141 21.7642 195.251C22.368 195.371 22.9607 195.223 23.5424 194.808C24.1416 194.381 24.4796 193.877 24.5567 193.298C24.6424 192.713 24.4227 192.044 23.8976 191.292L22.6154 189.455L18.8254 192.16Z" fill="white"/>
<path d="M27.2932 213.152C26.7716 212.518 26.4394 211.828 26.2964 211.083C26.1683 210.339 26.2389 209.602 26.5083 208.872C26.7926 208.143 27.2809 207.486 27.9733 206.9C28.6657 206.315 29.3904 205.954 30.1475 205.816C30.9127 205.672 31.6437 205.739 32.3406 206.015C33.0457 206.285 33.659 206.737 34.1805 207.372C34.7021 208.006 35.0303 208.7 35.1651 209.451C35.3149 210.205 35.2476 210.946 34.9634 211.675C34.694 212.406 34.2131 213.063 33.5207 213.649C32.8365 214.227 32.1118 214.588 31.3466 214.733C30.5814 214.877 29.8429 214.81 29.131 214.532C28.4274 214.247 27.8147 213.787 27.2932 213.152ZM28.0385 212.522C28.4043 212.967 28.8407 213.297 29.3478 213.51C29.863 213.717 30.415 213.767 31.0039 213.661C31.6076 213.555 32.2027 213.255 32.7892 212.759C33.3757 212.263 33.7737 211.731 33.9832 211.163C34.2009 210.588 34.2516 210.028 34.1356 209.484C34.0276 208.933 33.7908 208.435 33.425 207.99C33.0593 207.545 32.6188 207.219 32.1035 207.012C31.5965 206.798 31.0444 206.748 30.4475 206.862C29.8655 206.977 29.2812 207.282 28.6947 207.778C28.1082 208.274 27.7027 208.805 27.4783 209.372C27.2688 209.94 27.2146 210.495 27.3158 211.038C27.4319 211.583 27.6728 212.077 28.0385 212.522Z" fill="white"/>
<path d="M49.756 225.02L43.5842 231.203L42.8051 230.398L43.8902 229.311C43.3278 229.512 42.7594 229.523 42.1849 229.344C41.6104 229.164 41.0931 228.837 40.6331 228.362C39.9059 227.611 39.5384 226.771 39.5305 225.843C39.5301 224.908 39.9632 224.006 40.8299 223.138L44.4358 219.526L45.2038 220.319L41.6883 223.84C41.0176 224.512 40.6684 225.194 40.6407 225.886C40.6204 226.586 40.896 227.231 41.4673 227.821C42.0535 228.426 42.7094 228.72 43.4349 228.703C44.1605 228.685 44.8887 228.311 45.6197 227.578L48.9769 224.215L49.756 225.02Z" fill="white"/>
<path d="M61.6989 236.154C62.4848 236.843 62.9167 237.654 62.9946 238.588C63.0794 239.513 62.7265 240.445 61.936 241.383L58.6365 245.298L57.8065 244.57L61.0235 240.753C61.6353 240.027 61.9223 239.314 61.8845 238.614C61.8547 237.921 61.5311 237.304 60.9136 236.763C60.28 236.207 59.6029 235.968 58.8823 236.045C58.1617 236.122 57.468 236.557 56.8012 237.348L53.7286 240.994L52.8865 240.255L58.5163 233.575L59.3584 234.314L58.3994 235.451C58.9516 235.227 59.5136 235.18 60.0853 235.313C60.6638 235.437 61.2017 235.718 61.6989 236.154Z" fill="white"/>
<path d="M70.685 249.602C71.2029 248.871 71.8018 248.339 72.4815 248.007C73.1674 247.666 73.8679 247.535 74.583 247.614C75.3128 247.691 75.999 247.967 76.6415 248.444C77.2584 248.901 77.7074 249.467 77.9885 250.14C78.2696 250.813 78.3531 251.479 78.2392 252.138L81.1247 248.065L82.0243 248.732L75.1803 258.394L74.2808 257.726L75.4091 256.133C74.8435 256.471 74.2024 256.619 73.4859 256.579C72.7756 256.53 72.0907 256.261 71.431 255.772C70.7884 255.295 70.318 254.714 70.0198 254.028C69.7302 253.349 69.637 252.622 69.7403 251.849C69.8522 251.082 70.1671 250.333 70.685 249.602ZM76.8056 254.162C77.2126 253.588 77.4545 252.997 77.5315 252.39C77.6085 251.783 77.5289 251.213 77.2927 250.679C77.065 250.152 76.7114 249.711 76.2316 249.355C75.7347 248.986 75.209 248.769 74.6546 248.703C74.1002 248.637 73.5532 248.736 73.0136 248.999C72.4888 249.261 72.0167 249.687 71.5974 250.279C71.1843 250.862 70.9319 251.458 70.8402 252.067C70.7632 252.674 70.8386 253.241 71.0662 253.769C71.3 254.287 71.6653 254.731 72.1622 255.099C72.642 255.455 73.1621 255.662 73.7227 255.719C74.2918 255.783 74.8462 255.683 75.3858 255.419C75.9254 255.155 76.3987 254.736 76.8056 254.162Z" fill="white"/>
<path d="M91.2969 255.899L92.3852 256.603L89.3937 258.783L88.7085 258.34L91.2969 255.899Z" fill="white"/>
<path d="M97.598 273.003C96.7254 272.51 96.1187 271.903 95.7779 271.183C95.4515 270.459 95.4444 269.726 95.7566 268.984L96.7592 269.551C96.5742 270.01 96.5852 270.476 96.7922 270.948C97.0134 271.417 97.4257 271.821 98.0291 272.163C98.5583 272.462 99.0393 272.569 99.4721 272.483C99.9143 272.403 100.236 272.174 100.437 271.798C100.578 271.535 100.61 271.271 100.533 271.007C100.457 270.743 100.314 270.491 100.104 270.25C99.9088 270.004 99.6231 269.702 99.2472 269.342C98.7614 268.871 98.3823 268.46 98.11 268.11C97.8377 267.76 97.6542 267.368 97.5594 266.935C97.479 266.497 97.572 266.029 97.8386 265.531C98.0397 265.154 98.3372 264.869 98.731 264.676C99.1248 264.482 99.5762 264.406 100.085 264.449C100.594 264.492 101.109 264.661 101.629 264.955C102.446 265.418 102.992 266.002 103.267 266.709C103.547 267.407 103.509 268.133 103.154 268.888L102.179 268.336C102.393 267.869 102.41 267.407 102.231 266.95C102.066 266.489 101.705 266.101 101.148 265.786C100.656 265.508 100.194 265.399 99.762 265.461C99.3299 265.523 99.0209 265.728 98.8348 266.076C98.6739 266.377 98.6288 266.676 98.6996 266.974C98.7846 267.267 98.9316 267.546 99.1405 267.811C99.3544 268.067 99.6536 268.389 100.038 268.779C100.505 269.239 100.864 269.632 101.113 269.957C101.363 270.282 101.53 270.646 101.617 271.05C101.703 271.454 101.63 271.885 101.398 272.342C101.177 272.756 100.867 273.064 100.468 273.267C100.074 273.461 99.6272 273.539 99.1274 273.501C98.6277 273.463 98.1179 273.298 97.598 273.003Z" fill="white"/>
<path d="M123.358 280.972C123.675 280.134 124.115 279.466 124.679 278.97C125.256 278.468 125.9 278.166 126.611 278.063C127.336 277.955 128.069 278.051 128.811 278.352C129.581 278.665 130.176 279.114 130.593 279.698C131.021 280.286 131.253 280.91 131.289 281.569L131.967 279.773L133.005 280.194L129.918 288.366L128.88 287.945L129.564 286.134C129.096 286.588 128.511 286.886 127.808 287.026C127.119 287.161 126.389 287.071 125.618 286.758C124.887 286.461 124.291 286.018 123.83 285.427C123.379 284.841 123.106 284.161 123.011 283.386C122.926 282.615 123.042 281.81 123.358 280.972ZM130.424 283.859C130.673 283.2 130.758 282.567 130.679 281.96C130.601 281.353 130.38 280.82 130.018 280.362C129.665 279.908 129.212 279.568 128.658 279.344C128.085 279.111 127.522 279.032 126.97 279.107C126.417 279.181 125.913 279.414 125.458 279.805C125.016 280.189 124.667 280.721 124.411 281.399C124.158 282.068 124.064 282.709 124.129 283.322C124.208 283.929 124.423 284.46 124.776 284.914C125.133 285.358 125.597 285.697 126.171 285.929C126.724 286.154 127.279 286.224 127.835 286.139C128.402 286.059 128.912 285.823 129.368 285.432C129.823 285.042 130.175 284.517 130.424 283.859Z" fill="white"/>
<path d="M156.311 297.153C155.341 296.899 154.599 296.468 154.085 295.86C153.584 295.244 153.39 294.537 153.502 293.74L154.616 294.031C154.555 294.522 154.685 294.97 155.006 295.373C155.339 295.769 155.842 296.055 156.512 296.23C157.101 296.384 157.593 296.364 157.989 296.17C158.396 295.979 158.649 295.676 158.747 295.261C158.816 294.97 158.779 294.707 158.638 294.472C158.496 294.236 158.293 294.029 158.029 293.849C157.777 293.662 157.424 293.443 156.968 293.192C156.378 292.861 155.906 292.561 155.553 292.292C155.2 292.024 154.923 291.692 154.72 291.297C154.53 290.895 154.501 290.419 154.631 289.869C154.729 289.453 154.944 289.102 155.275 288.814C155.606 288.525 156.023 288.337 156.526 288.248C157.029 288.159 157.57 288.191 158.148 288.342C159.056 288.579 159.733 289.004 160.18 289.617C160.629 290.22 160.779 290.931 160.629 291.752L159.545 291.468C159.632 290.962 159.53 290.511 159.24 290.116C158.963 289.712 158.515 289.43 157.896 289.268C157.349 289.125 156.874 289.138 156.473 289.309C156.071 289.479 155.824 289.757 155.733 290.141C155.655 290.473 155.688 290.774 155.832 291.043C155.99 291.304 156.203 291.537 156.473 291.739C156.745 291.932 157.117 292.167 157.588 292.445C158.158 292.77 158.605 293.058 158.929 293.308C159.254 293.558 159.509 293.867 159.696 294.236C159.883 294.604 159.922 295.039 159.815 295.54C159.707 295.997 159.486 296.375 159.153 296.673C158.821 296.961 158.409 297.151 157.917 297.243C157.424 297.334 156.888 297.304 156.311 297.153Z" fill="white"/>
<path d="M176.122 292.385C176.773 292.502 177.334 292.743 177.806 293.11C178.288 293.478 178.632 293.973 178.837 294.595C179.054 295.208 179.099 295.92 178.972 296.731L178.18 301.79L177.094 301.595L177.865 296.663C178.012 295.725 177.888 294.966 177.493 294.386C177.109 293.808 176.512 293.446 175.704 293.301C174.874 293.152 174.172 293.297 173.596 293.736C173.02 294.174 172.652 294.904 172.492 295.927L171.755 300.637L170.652 300.44L172.483 288.742L173.585 288.94L172.875 293.476C173.229 293.009 173.691 292.68 174.26 292.49C174.84 292.301 175.461 292.266 176.122 292.385Z" fill="white"/>
<path d="M190.446 299.203C190.512 298.309 190.744 297.544 191.144 296.907C191.555 296.26 192.087 295.785 192.74 295.482C193.405 295.169 194.136 295.051 194.932 295.125C195.76 295.203 196.458 295.461 197.024 295.9C197.602 296.34 198.001 296.87 198.223 297.491L198.364 295.576L199.479 295.681L198.838 304.393L197.723 304.289L197.865 302.358C197.545 302.928 197.068 303.381 196.434 303.718C195.811 304.045 195.085 304.169 194.257 304.092C193.471 304.018 192.773 303.765 192.164 303.333C191.564 302.902 191.109 302.329 190.798 301.614C190.498 300.9 190.38 300.097 190.446 299.203ZM198.043 299.932C198.095 299.23 197.997 298.6 197.749 298.041C197.502 297.482 197.139 297.036 196.661 296.702C196.193 296.368 195.662 296.174 195.068 296.118C194.452 296.06 193.889 296.147 193.38 296.378C192.872 296.608 192.454 296.976 192.128 297.481C191.814 297.976 191.63 298.586 191.577 299.309C191.525 300.022 191.617 300.663 191.853 301.231C192.1 301.79 192.458 302.236 192.925 302.569C193.394 302.891 193.936 303.081 194.552 303.139C195.146 303.195 195.699 303.102 196.208 302.861C196.728 302.621 197.151 302.248 197.477 301.743C197.803 301.238 197.992 300.634 198.043 299.932Z" fill="white"/>
<path d="M211.823 298.315C212.095 297.731 212.529 297.25 213.123 296.871C213.728 296.482 214.446 296.292 215.278 296.3C216.067 296.307 216.778 296.501 217.41 296.88C218.053 297.249 218.554 297.776 218.911 298.462C219.279 299.137 219.467 299.923 219.475 300.819C219.482 301.715 219.307 302.502 218.95 303.182C218.604 303.861 218.112 304.384 217.475 304.752C216.849 305.119 216.141 305.299 215.352 305.291C214.531 305.284 213.814 305.085 213.203 304.695C212.592 304.295 212.145 303.8 211.863 303.211L211.913 309.259L210.809 309.248L210.703 296.385L211.807 296.395L211.823 298.315ZM218.339 300.808C218.333 300.083 218.184 299.458 217.891 298.932C217.61 298.396 217.222 297.987 216.729 297.705C216.236 297.423 215.681 297.279 215.062 297.274C214.465 297.268 213.917 297.407 213.418 297.69C212.929 297.973 212.543 298.38 212.26 298.911C211.976 299.442 211.837 300.059 211.843 300.763C211.849 301.467 211.998 302.087 212.29 302.623C212.583 303.159 212.975 303.573 213.468 303.866C213.972 304.159 214.523 304.308 215.12 304.313C215.739 304.319 216.292 304.186 216.78 303.913C217.269 303.63 217.649 303.223 217.922 302.692C218.206 302.151 218.345 301.523 218.339 300.808Z" fill="white"/>
<path d="M238.41 299.539C238.444 299.921 238.458 300.214 238.455 300.418L231.226 300.942C231.315 301.598 231.524 302.15 231.852 302.597C232.18 303.043 232.589 303.372 233.078 303.582C233.567 303.782 234.087 303.862 234.641 303.822C235.364 303.77 235.955 303.55 236.414 303.164C236.883 302.777 237.172 302.28 237.28 301.674L238.46 301.588C238.322 302.454 237.925 303.183 237.27 303.776C236.625 304.357 235.776 304.686 234.723 304.762C233.903 304.822 233.154 304.694 232.473 304.38C231.792 304.055 231.236 303.572 230.805 302.929C230.384 302.275 230.134 301.497 230.055 300.593C229.976 299.69 230.088 298.885 230.39 298.179C230.693 297.473 231.153 296.915 231.77 296.507C232.388 296.099 233.111 295.865 233.941 295.804C234.771 295.744 235.51 295.872 236.159 296.189C236.818 296.505 237.339 296.959 237.723 297.551C238.116 298.132 238.345 298.795 238.41 299.539ZM237.274 299.589C237.228 298.94 237.047 298.397 236.731 297.96C236.425 297.522 236.028 297.204 235.539 297.004C235.051 296.804 234.53 296.724 233.977 296.764C233.147 296.824 232.463 297.141 231.924 297.715C231.385 298.289 231.126 299.061 231.146 300.033L237.274 299.589Z" fill="white"/>
<path d="M250.006 303.178C249.773 303.21 249.566 303.157 249.384 303.02C249.213 302.881 249.11 302.696 249.076 302.464C249.043 302.231 249.089 302.032 249.215 301.864C249.35 301.684 249.534 301.579 249.767 301.548C249.989 301.518 250.186 301.572 250.357 301.711C250.537 301.837 250.644 302.017 250.678 302.249C250.712 302.481 250.661 302.687 250.526 302.867C250.401 303.045 250.228 303.149 250.006 303.178Z" fill="white"/>
<path d="M275.324 298.445C274.61 298.625 273.947 298.66 273.335 298.551C272.733 298.439 272.219 298.2 271.793 297.834C271.367 297.468 271.073 297.015 270.91 296.473L272.058 296.183C272.247 296.696 272.6 297.102 273.119 297.401C273.634 297.689 274.29 297.732 275.087 297.531C275.821 297.346 276.352 297.014 276.679 296.536C277.014 296.044 277.107 295.509 276.957 294.931C276.836 294.466 276.62 294.125 276.31 293.906C275.997 293.677 275.647 293.54 275.261 293.494C274.872 293.438 274.345 293.406 273.682 293.397C272.907 293.384 272.283 293.338 271.811 293.259C271.338 293.18 270.901 292.982 270.499 292.666C270.098 292.349 269.809 291.855 269.635 291.184C269.49 290.627 269.506 290.094 269.683 289.588C269.857 289.071 270.176 288.622 270.639 288.241C271.102 287.86 271.675 287.584 272.358 287.412C273.361 287.159 274.232 287.203 274.971 287.545C275.718 287.873 276.238 288.413 276.532 289.164L275.353 289.461C275.166 289.035 274.821 288.704 274.318 288.468C273.813 288.222 273.209 288.187 272.506 288.364C271.854 288.529 271.357 288.841 271.014 289.302C270.668 289.752 270.573 290.276 270.728 290.875C270.846 291.329 271.061 291.666 271.371 291.885C271.681 292.103 272.031 292.241 272.42 292.297C272.82 292.35 273.346 292.382 273.999 292.393C274.754 292.412 275.373 292.465 275.859 292.551C276.342 292.628 276.784 292.824 277.186 293.141C277.588 293.457 277.874 293.946 278.046 294.607C278.178 295.113 278.168 295.627 278.017 296.149C277.866 296.671 277.563 297.138 277.108 297.549C276.653 297.961 276.058 298.26 275.324 298.445Z" fill="white"/>
<path d="M293.841 293.12C293.064 293.385 292.303 293.454 291.559 293.325C290.822 293.182 290.161 292.856 289.579 292.345C289.002 291.82 288.566 291.129 288.27 290.272C287.974 289.415 287.898 288.607 288.042 287.848C288.183 287.079 288.506 286.415 289.014 285.859C289.518 285.292 290.158 284.876 290.935 284.61C291.713 284.345 292.475 284.281 293.223 284.42C293.977 284.546 294.642 284.871 295.219 285.395C295.801 285.906 296.241 286.59 296.537 287.447C296.829 288.294 296.905 289.102 296.765 289.872C296.625 290.641 296.297 291.311 295.783 291.881C295.266 292.441 294.619 292.854 293.841 293.12ZM293.523 292.197C294.068 292.011 294.531 291.717 294.911 291.317C295.288 290.906 295.533 290.405 295.645 289.815C295.764 289.211 295.697 288.546 295.447 287.82C295.196 287.094 294.844 286.532 294.391 286.135C293.934 285.727 293.432 285.482 292.884 285.399C292.332 285.305 291.784 285.352 291.239 285.538C290.694 285.724 290.233 286.023 289.856 286.433C289.475 286.834 289.23 287.335 289.122 287.935C289.02 288.523 289.094 289.179 289.345 289.905C289.596 290.631 289.945 291.199 290.391 291.61C290.845 292.008 291.342 292.255 291.883 292.352C292.431 292.435 292.978 292.384 293.523 292.197Z" fill="white"/>
<path d="M316.767 271.648L321.595 281.737L320.586 282.222L315.758 272.134L316.767 271.648Z" fill="white"/>
<path d="M338.76 263.525L341.583 268.156C341.861 268.611 342.139 268.872 342.417 268.938C342.694 269.005 343.051 268.903 343.486 268.633L344.356 268.094L344.856 268.913L343.836 269.545C343.165 269.961 342.572 270.116 342.057 270.008C341.536 269.892 341.057 269.474 340.618 268.754L337.795 264.123L336.761 264.764L336.27 263.958L337.303 263.317L336.162 261.445L337.128 260.847L338.269 262.719L340.309 261.454L340.8 262.26L338.76 263.525Z" fill="white"/>
<path d="M351.417 253.832C351.952 253.444 352.512 253.21 353.096 253.13C353.688 253.044 354.271 253.148 354.846 253.443C355.423 253.723 355.949 254.199 356.423 254.869L359.381 259.049L358.487 259.696L355.603 255.621C355.055 254.846 354.441 254.395 353.763 254.267C353.093 254.133 352.425 254.306 351.76 254.788C351.077 255.282 350.687 255.894 350.589 256.623C350.491 257.352 350.741 258.139 351.338 258.984L354.092 262.876L353.185 263.532L346.346 253.868L347.253 253.211L349.906 256.959C349.829 256.37 349.923 255.802 350.188 255.254C350.463 254.7 350.872 254.226 351.417 253.832Z" fill="white"/>
<path d="M363.194 242.923C363.021 243.066 362.823 243.126 362.6 243.104C362.376 243.081 362.191 242.979 362.043 242.796C361.896 242.614 361.837 242.413 361.866 242.195C361.889 241.968 361.986 241.783 362.159 241.64C362.331 241.497 362.529 241.437 362.753 241.459C362.97 241.473 363.152 241.572 363.299 241.754C363.447 241.937 363.509 242.141 363.486 242.368C363.464 242.595 363.366 242.78 363.194 242.923ZM364.66 243.847L370.148 250.645L369.286 251.36L363.798 244.562L364.66 243.847Z" fill="white"/>
<path d="M374.827 234.706C375.586 233.987 376.425 233.64 377.345 233.664C378.258 233.68 379.129 234.14 379.959 235.044L383.421 238.816L382.62 239.575L379.244 235.898C378.602 235.199 377.937 234.829 377.25 234.79C376.57 234.744 375.932 235.003 375.336 235.568C374.725 236.148 374.417 236.807 374.414 237.544C374.411 238.282 374.759 239.032 375.459 239.794L378.683 243.307L377.87 244.077L371.962 237.642L372.775 236.871L373.782 237.967C373.622 237.384 373.638 236.81 373.83 236.246C374.015 235.674 374.347 235.161 374.827 234.706Z" fill="white"/>
<path d="M395.422 226.417L390.15 226.402L393.006 229.086L392.255 229.916L383.626 221.808L384.378 220.978L389.485 225.777L389.002 220.494L390.055 219.332L390.445 225.384L396.442 225.29L395.422 226.417Z" fill="white"/>
<path d="M402.52 199.885L411.443 206.627L410.787 207.535L401.864 200.793L402.52 199.885Z" fill="white"/>
<path d="M408.15 191.754L408.859 190.669L410.939 193.802L410.493 194.486L408.15 191.754Z" fill="white"/>
<path d="M420.723 175.198C421.212 174.298 421.891 173.729 422.761 173.491C423.626 173.238 424.591 173.417 425.654 174.028L430.094 176.578L429.567 177.548L425.239 175.062C424.415 174.589 423.677 174.429 423.023 174.583C422.37 174.736 421.855 175.16 421.478 175.853C421.086 176.575 421.009 177.287 421.247 177.989C421.484 178.691 422.052 179.3 422.949 179.815L427.056 182.174L426.529 183.144L422.2 180.658C421.377 180.185 420.638 180.025 419.985 180.179C419.331 180.332 418.814 180.761 418.432 181.464C418.04 182.185 417.963 182.897 418.2 183.599C418.438 184.302 419.005 184.91 419.903 185.426L424.01 187.784L423.475 188.769L415.9 184.418L416.434 183.434L417.738 184.183C417.399 183.668 417.231 183.117 417.235 182.528C417.229 181.935 417.377 181.362 417.677 180.809C418.039 180.143 418.511 179.652 419.096 179.336C419.685 179.011 420.346 178.911 421.078 179.036C420.589 178.485 420.322 177.87 420.278 177.193C420.229 176.501 420.377 175.836 420.723 175.198Z" fill="white"/>
<path d="M431.796 147.639C431.716 147.848 431.573 147.997 431.368 148.086C431.163 148.174 430.952 148.174 430.735 148.085C430.518 147.996 430.369 147.848 430.287 147.642C430.197 147.432 430.191 147.222 430.271 147.013C430.351 146.804 430.494 146.655 430.699 146.566C430.894 146.473 431.1 146.471 431.317 146.561C431.534 146.65 431.688 146.799 431.779 147.01C431.87 147.22 431.875 147.43 431.796 147.639ZM433.52 147.742L441.601 151.06L441.201 152.106L433.12 148.788L433.52 147.742Z" fill="white"/>
<path d="M437.946 134.676C438.256 133.677 438.817 132.966 439.629 132.542C440.431 132.114 441.414 132.096 442.576 132.488L447.428 134.121L447.102 135.176L442.371 133.583C441.471 133.28 440.713 133.278 440.095 133.576C439.481 133.865 439.053 134.401 438.81 135.186C438.561 135.991 438.614 136.718 438.972 137.367C439.329 138.016 439.997 138.506 440.978 138.836L445.497 140.357L445.165 141.427L436.886 138.639L437.218 137.569L438.628 138.044C438.204 137.609 437.939 137.098 437.83 136.51C437.712 135.919 437.751 135.307 437.946 134.676Z" fill="white"/>
<path d="M454.265 106.402C454.094 107.39 453.729 108.155 453.169 108.697C452.601 109.227 451.918 109.451 451.12 109.37L451.317 108.235C451.808 108.277 452.24 108.128 452.612 107.789C452.977 107.437 453.218 106.919 453.336 106.236C453.44 105.637 453.38 105.141 453.156 104.749C452.934 104.347 452.613 104.104 452.195 104.022C451.901 103.964 451.644 104.011 451.423 104.163C451.202 104.316 451.013 104.528 450.858 104.802C450.693 105.063 450.506 105.428 450.294 105.898C450.016 106.506 449.758 106.993 449.521 107.359C449.284 107.726 448.979 108.019 448.605 108.239C448.223 108.446 447.755 108.495 447.2 108.386C446.781 108.303 446.416 108.101 446.104 107.779C445.792 107.456 445.571 107.043 445.442 106.54C445.313 106.036 445.3 105.49 445.402 104.901C445.562 103.977 445.927 103.277 446.497 102.802C447.056 102.325 447.747 102.146 448.571 102.265L448.379 103.368C447.871 103.301 447.434 103.421 447.066 103.729C446.69 104.025 446.448 104.488 446.338 105.119C446.242 105.676 446.294 106.153 446.495 106.552C446.697 106.95 446.991 107.187 447.379 107.263C447.713 107.329 448.008 107.284 448.263 107.128C448.508 106.959 448.72 106.734 448.899 106.454C449.067 106.172 449.269 105.788 449.505 105.302C449.78 104.715 450.028 104.253 450.248 103.916C450.469 103.579 450.754 103.309 451.103 103.106C451.452 102.903 451.879 102.846 452.383 102.934C452.844 103.025 453.235 103.232 453.558 103.557C453.87 103.879 454.091 104.287 454.222 104.78C454.353 105.273 454.368 105.814 454.265 106.402Z" fill="white"/>
<path d="M447.99 86.4992C448.053 85.8408 448.247 85.2675 448.572 84.7793C448.898 84.2804 449.361 83.9156 449.962 83.6848C450.553 83.4423 451.256 83.3684 452.072 83.4634L457.157 84.0552L457.053 85.1543L452.094 84.5772C451.151 84.4675 450.408 84.6225 449.864 85.0424C449.322 85.4517 449.012 86.0651 448.934 86.8828C448.854 87.7216 449.055 88.4214 449.537 88.9821C450.019 89.5429 450.774 89.883 451.802 90.0026L456.538 90.5538L456.432 91.6688L444.671 90.3001L444.778 89.1851L449.339 89.7159C448.846 89.3794 448.482 88.9291 448.246 88.3649C448.012 87.79 447.926 87.1681 447.99 86.4992Z" fill="white"/>
<path d="M453.662 71.5975C452.766 71.569 451.985 71.3681 451.318 70.9948C450.64 70.6105 450.125 70.098 449.77 69.4572C449.406 68.8054 449.229 68.0795 449.24 67.2796C449.251 66.4477 449.452 65.7392 449.844 65.1541C450.236 64.5583 450.732 64.1366 451.333 63.8889L449.414 63.828L449.429 62.7081L458.16 62.9854L458.145 64.1053L456.21 64.0439C456.804 64.3401 457.294 64.7985 457.68 65.419C458.056 66.0285 458.238 66.7492 458.227 67.5811C458.216 68.3704 458.02 69.079 457.639 69.7071C457.257 70.3245 456.723 70.8037 456.035 71.1447C455.348 71.475 454.557 71.6259 453.662 71.5975ZM453.78 63.9667C453.076 63.9443 452.456 64.0686 451.919 64.3397C451.382 64.6107 450.966 64.9923 450.672 65.4845C450.377 65.966 450.226 66.5053 450.218 67.1026C450.21 67.7212 450.341 68.2802 450.611 68.7797C450.882 69.2791 451.282 69.6813 451.811 69.9862C452.33 70.2801 452.952 70.4385 453.677 70.4616C454.391 70.4843 455.022 70.3656 455.569 70.1055C456.106 69.8345 456.522 69.4582 456.816 68.9768C457.1 68.4949 457.246 67.9447 457.254 67.3261C457.262 66.7288 457.126 66.1803 456.844 65.6806C456.563 65.1701 456.158 64.7625 455.629 64.4575C455.1 64.1526 454.483 63.989 453.78 63.9667Z" fill="white"/>
<path d="M451.111 49.9391C450.507 49.6933 449.992 49.2825 449.568 48.7067C449.133 48.1209 448.887 47.4129 448.83 46.5828C448.776 45.7953 448.915 45.0778 449.245 44.4303C449.563 43.7727 450.051 43.2504 450.709 42.8633C451.356 42.4661 452.126 42.244 453.021 42.1969C453.916 42.1498 454.716 42.2892 455.423 42.6151C456.128 42.9304 456.689 43.3975 457.106 44.0164C457.521 44.6246 457.756 45.3225 457.81 46.11C457.865 46.9294 457.722 47.6525 457.38 48.2793C457.027 48.9067 456.567 49.3741 456 49.6817L462.04 49.3636L462.115 50.4651L449.269 51.1415L449.194 50.0401L451.111 49.9391ZM453.098 43.3302C452.374 43.3684 451.761 43.5449 451.258 43.8597C450.744 44.1644 450.366 44.5689 450.122 45.073C449.879 45.5771 449.778 46.1378 449.82 46.755C449.861 47.3509 450.042 47.8914 450.363 48.3765C450.684 48.8508 451.121 49.2177 451.673 49.477C452.225 49.7363 452.853 49.8474 453.556 49.8104C454.259 49.7734 454.867 49.5972 455.38 49.2818C455.893 48.9664 456.277 48.5564 456.531 48.0517C456.784 47.5364 456.891 46.9807 456.85 46.3848C456.808 45.7676 456.632 45.2215 456.322 44.7465C456.001 44.2721 455.564 43.9106 455.013 43.662C454.45 43.4032 453.812 43.2927 453.098 43.3302Z" fill="white"/>
<path d="M450.315 23.0027C450.696 22.9512 450.988 22.9224 451.192 22.9163L452.252 30.0865C452.902 29.9661 453.439 29.732 453.862 29.3841C454.285 29.0363 454.584 28.6138 454.758 28.1166C454.922 27.6208 454.964 27.0985 454.883 26.5498C454.777 25.8323 454.513 25.2544 454.093 24.8162C453.671 24.3675 453.152 24.1041 452.537 24.0259L452.364 22.8546C453.24 22.9512 454 23.3112 454.642 23.9347C455.272 24.549 455.664 25.3785 455.818 26.4232C455.938 27.2357 455.866 27.9881 455.602 28.6805C455.327 29.3742 454.884 29.9508 454.273 30.4103C453.649 30.8606 452.888 31.1466 451.99 31.2682C451.091 31.3899 450.277 31.3171 449.548 31.0499C448.818 30.7827 448.226 30.3516 447.772 29.7565C447.317 29.1615 447.029 28.4525 446.907 27.6294C446.786 26.8063 446.86 26.0645 447.128 25.4038C447.396 24.7326 447.812 24.1919 448.377 23.7818C448.929 23.3626 449.576 23.1029 450.315 23.0027ZM450.45 24.1308C449.803 24.2076 449.273 24.4139 448.859 24.7497C448.444 25.0751 448.154 25.4856 447.99 25.9814C447.826 26.4772 447.785 26.9994 447.866 27.5481C447.987 28.3712 448.355 29.0371 448.97 29.5459C449.584 30.0548 450.377 30.2757 451.348 30.2088L450.45 24.1308Z" fill="white"/>
<path d="M453.076 10.8703C453.124 11.1 453.086 11.3088 452.961 11.4965C452.835 11.6738 452.656 11.7852 452.426 11.8308C452.196 11.8763 451.992 11.8405 451.815 11.7233C451.626 11.5977 451.507 11.4201 451.46 11.1903C451.414 10.971 451.454 10.7727 451.581 10.5954C451.695 10.4098 451.867 10.2942 452.097 10.2486C452.327 10.203 452.537 10.243 452.727 10.3686C452.914 10.4837 453.031 10.651 453.076 10.8703Z" fill="white"/>
</svg>
