<svg width="168" height="32" viewBox="0 0 168 32" fill="none" xmlns="http://www.w3.org/2000/svg">
<path d="M0.912048 15.6735V30.6289L8.60165 30.586C12.9936 30.5645 16.5936 30.5145 17.004 30.4716C17.4 30.4286 18.1704 30.3071 18.7176 30.1926C23.0304 29.2843 25.4424 27.0885 26.076 23.4909C26.2128 22.7042 26.2128 21.2308 26.076 20.4441C25.7592 18.6203 24.8232 16.8608 23.6712 15.9095C23.052 15.4017 22.26 14.9368 21.54 14.6651C21.2232 14.5506 20.9064 14.429 20.8344 14.4004C20.7264 14.3575 20.8272 14.2717 21.3384 13.9713C22.4832 13.299 23.412 12.4049 24.024 11.4108C25.0824 9.66562 25.0536 6.28976 23.952 4.23706C23.1384 2.72078 21.5256 1.67655 19.1928 1.14728C17.4288 0.753906 17.9832 0.775362 9.14165 0.746754L0.912048 0.718143V15.6735ZM15.2904 5.87493C15.5712 5.91069 16.0752 6.04658 16.4064 6.16817C16.9104 6.36128 17.076 6.46856 17.4792 6.86909C18.12 7.49849 18.2712 7.89902 18.3144 9.02192C18.3864 10.7742 17.8824 11.7398 16.5864 12.3549C15.6864 12.7769 15.456 12.7983 11.3376 12.8269L7.60805 12.8555V9.32947V5.8034H11.1936C13.1592 5.8034 15.0024 5.83916 15.2904 5.87493ZM16.3416 17.4187C17.2992 17.6475 17.8968 17.9479 18.4152 18.4558C19.2216 19.264 19.5168 20.0936 19.5168 21.5384C19.5168 22.318 19.488 22.5039 19.3224 23.0046C19.0992 23.6626 18.804 24.0917 18.2496 24.5638C17.6736 25.0501 17.076 25.3005 16.0824 25.4721C15.2976 25.6009 14.9088 25.6152 11.4168 25.6152H7.60805V21.4239V17.2399L11.7336 17.2685C15.2256 17.2971 15.924 17.3185 16.3416 17.4187Z" fill="white"/>
<path d="M52.4644 15.7094V30.6934H55.4452H58.426L58.462 24.2349C58.4836 20.1652 58.5268 17.6119 58.5772 17.3186C59.002 14.7796 59.9092 13.6638 61.8892 13.2705C62.7028 13.1131 63.898 13.1632 64.546 13.3849C65.662 13.7711 66.2812 14.6222 66.6556 16.2959C66.814 16.9896 66.8212 17.0755 66.8428 23.8415L66.8716 30.6934H69.8596H72.8476L72.8188 22.9832C72.7972 16.1099 72.7828 15.1944 72.6676 14.5078C72.358 12.5767 71.7172 11.1891 70.7092 10.2307C69.5068 9.10783 68.146 8.58572 66.0004 8.43552C64.2796 8.31393 63.1276 8.53565 61.5436 9.27234C60.3844 9.82306 59.5636 10.5097 58.8724 11.5324C58.7068 11.7613 58.5484 11.9544 58.5124 11.9544C58.4692 11.9544 58.4404 9.88743 58.4404 6.33991V0.725384H55.4524H52.4644V15.7094Z" fill="white"/>
<path d="M32.9523 4.2297V5.66016H39.0723H45.1923V4.2297V2.79924H39.0723H32.9523V4.2297Z" fill="white"/>
<path d="M38.4239 8.4211C36.3575 8.66428 34.7519 9.19355 33.3983 10.0661C31.7351 11.1461 30.5759 12.4121 29.6903 14.1501C28.7327 16.0311 28.4087 17.4973 28.4087 19.8933C28.4087 21.7315 28.5599 22.7471 29.0783 24.3277C29.8631 26.7595 31.6415 28.8837 33.8015 29.9995C37.1783 31.7303 41.5487 31.7947 44.8391 30.1497C45.8039 29.6705 46.2935 29.3272 47.0279 28.5905C47.7623 27.8538 48.3959 26.9669 48.8999 25.9727C49.1951 25.3863 49.7279 24.1275 49.7279 24.0059C49.7279 23.9844 48.5399 23.9701 47.0855 23.9701H44.4359L44.2271 24.3849C43.9247 24.9643 43.0319 25.8297 42.4055 26.1372C41.3111 26.688 40.1519 26.8954 38.8847 26.7666C37.8983 26.6737 37.3727 26.5378 36.7103 26.2159C35.4647 25.6151 34.6007 24.2777 34.2839 22.4896C34.2263 22.1534 34.1759 21.7386 34.1759 21.567V21.2523H42.0599H49.9439L49.9871 21.0591C50.0591 20.7802 49.9583 18.0337 49.8431 17.1755C49.6487 15.6878 48.8711 13.9069 47.7119 12.2833C46.3439 10.3737 44.0399 8.95037 41.6639 8.557C41.0015 8.44256 38.9423 8.35673 38.4239 8.4211ZM40.6919 13.1273C41.9447 13.4634 42.8231 14.193 43.4207 15.4017C43.7447 16.0597 44.0399 17.0038 44.0399 17.4043V17.6046L39.1655 17.5903L34.2839 17.5688L34.3055 17.3185C34.3415 16.8679 34.5503 15.931 34.6943 15.5376C34.8023 15.2587 34.9967 14.994 35.3927 14.5792C36.2135 13.7209 36.9191 13.3132 38.0279 13.0558C38.5823 12.927 40.0943 12.9699 40.6919 13.1273Z" fill="white"/>
<path d="M85.3677 8.45704C83.8629 8.53572 82.6245 8.73598 81.5877 9.07214C79.6941 9.68008 78.1749 10.7815 77.2317 12.212C76.6773 13.0488 76.2957 14.2718 76.2957 15.1802V15.6022H79.2837C80.9253 15.6022 82.2717 15.5807 82.2717 15.5449C82.2789 15.2732 82.5165 14.4649 82.6965 14.1145C83.1285 13.2634 83.8125 12.7126 84.7341 12.4838C85.3605 12.3264 87.1245 12.2978 87.7149 12.4337C88.7949 12.684 89.5077 13.1847 89.8821 13.9428C90.0621 14.3147 90.0837 14.422 90.0837 15.1373C90.0837 16.0814 89.9757 16.3531 89.4789 16.7179C89.0253 17.0469 88.1325 17.3831 87.3909 17.4975C87.0525 17.5547 85.7349 17.7264 84.4677 17.8909C81.1413 18.3057 80.1909 18.5203 78.8877 19.1568C78.2181 19.4787 77.9661 19.6503 77.5413 20.058C76.2453 21.3025 75.7413 22.454 75.6621 24.3422C75.5613 26.8956 76.4253 28.7409 78.2901 29.9568C79.0389 30.4431 79.4997 30.6434 80.4645 30.908C81.3933 31.1655 82.1925 31.2656 83.2437 31.2656C86.0805 31.2585 88.3413 30.5218 89.9901 29.0699C90.3213 28.7766 90.3717 28.7552 90.4149 28.8768C90.4437 28.9554 90.4725 29.1271 90.4725 29.2701C90.4797 29.592 90.7173 30.3859 90.8757 30.6005L90.9909 30.765H94.0149C95.6709 30.765 97.0317 30.7435 97.0317 30.7221C97.0317 30.7006 96.9525 30.5504 96.8589 30.3859C96.5925 29.921 96.3909 29.2201 96.2613 28.326C96.1677 27.6394 96.1389 26.3949 96.0957 20.4299C96.0525 13.3563 96.0525 13.3492 95.8869 12.8199C95.5557 11.7185 95.0949 11.039 94.1661 10.2737C93.2805 9.54419 91.7901 8.92194 90.4077 8.70737C89.0253 8.4928 86.7933 8.38552 85.3677 8.45704ZM90.0261 22.1822C90.0045 23.1049 89.9541 24.0061 89.9037 24.1849C89.6229 25.3006 88.6149 26.4808 87.6501 26.8455C86.3613 27.3319 84.1221 27.3247 82.9557 26.8312C82.5957 26.681 82.1277 26.209 81.8613 25.7298C81.6669 25.3793 81.6597 25.3221 81.6597 24.4281V23.4911L81.9189 23.1049C82.2789 22.5685 82.7181 22.1608 83.1573 21.9534C83.5821 21.7531 85.1301 21.3597 85.9437 21.2524C88.2477 20.9521 89.2557 20.6874 89.8677 20.2225C90.0045 20.1224 90.0117 20.1295 90.0405 20.3083C90.0477 20.4156 90.0477 21.2596 90.0261 22.1822Z" fill="white"/>
<path d="M111.216 8.44984C110.46 8.52137 109.927 8.64296 109.099 8.92905C107.429 9.50838 106.392 10.2594 105.521 11.5396C105.362 11.7685 105.204 11.9545 105.168 11.9545C105.125 11.9545 105.096 11.368 105.096 10.4525V8.9505H102.144H99.192V19.8935V30.8364H102.216H105.24V24.4495C105.24 20.8662 105.276 17.8336 105.312 17.5332C105.499 16.0455 105.924 15.0442 106.658 14.3219C107.515 13.4922 108.552 13.0988 109.92 13.0988C111.979 13.0988 113.081 14.0072 113.606 16.1385C113.765 16.7751 113.765 16.8609 113.786 23.7342L113.815 30.6934H116.839H119.87L119.834 23.1978C119.791 14.4935 119.784 14.3576 119.143 12.7341C118.704 11.6111 118.272 10.9388 117.559 10.2379C117.048 9.7301 116.818 9.5656 116.256 9.28666C115.882 9.10785 115.298 8.87898 114.96 8.77885C113.988 8.50706 112.282 8.35686 111.216 8.44984Z" fill="white"/>
<path d="M132.313 8.42845C131.002 8.52858 129.339 8.92911 128.353 9.38685C126.79 10.1164 125.156 11.4682 124.299 12.7484C123.464 13.9929 122.665 15.9097 122.369 17.3688C122.153 18.4559 122.096 21.0093 122.261 22.1608C122.679 24.9788 124.112 27.4249 126.329 29.0913C127.402 29.8995 129.281 30.7149 130.75 31.0153C132.817 31.4301 135.466 31.2656 137.353 30.6076C140.708 29.4347 142.76 27.01 143.545 23.3266C143.624 22.9547 143.689 22.5899 143.689 22.5184C143.689 22.404 143.501 22.3968 140.816 22.3968H137.943L137.893 22.7687C137.677 24.3422 136.805 25.6368 135.545 26.2519C134.703 26.6596 134.163 26.7812 133.177 26.7883C132.219 26.7883 131.542 26.6238 130.873 26.2233C130.138 25.7798 129.217 24.6927 128.821 23.7987C128.331 22.6901 128.093 21.1023 128.158 19.2856C128.209 18.0697 128.288 17.612 128.633 16.5248C129.145 14.9513 130.333 13.5852 131.621 13.106C132.817 12.6626 134.681 12.8056 135.733 13.4207C136.114 13.6425 136.654 14.1789 136.885 14.5651C137.115 14.9656 137.403 15.831 137.461 16.3317L137.511 16.7465H140.463H143.408L143.365 16.3317C143.12 14.2146 142.328 12.448 141.075 11.225C140.204 10.3739 138.656 9.46553 137.389 9.05785C135.841 8.56434 133.832 8.31401 132.313 8.42845Z" fill="white"/>
<path d="M155.136 8.44976C151.701 8.87175 149.044 10.4381 147.266 13.0844C146.51 14.2002 145.869 15.7379 145.603 17.0325C145.293 18.5631 145.272 20.8804 145.552 22.4825C145.711 23.3837 146.15 24.7641 146.532 25.5937C147.201 27.0313 148.634 28.6621 150.024 29.5847C151.615 30.6289 153.703 31.2297 156 31.3155C158.095 31.3942 159.938 31.0366 161.652 30.2284C162.573 29.785 163.113 29.4202 163.819 28.7479C164.611 27.9897 165.244 27.1529 165.748 26.1874C166.123 25.4793 166.656 24.2133 166.656 24.0417C166.656 23.9916 165.813 23.9702 164.085 23.9702H161.508L161.292 24.385C160.996 24.9572 160.125 25.8011 159.492 26.1302C158.419 26.6809 157.216 26.9026 155.964 26.7667C154.423 26.6094 153.516 26.2374 152.745 25.465C151.946 24.6639 151.392 23.3336 151.276 21.9604L151.226 21.3954H159.11H166.994L167.044 21.1236C167.16 20.4155 167.037 18.4987 166.8 17.3114C166.296 14.8296 164.827 12.1832 163.156 10.7456C161.846 9.62989 160.219 8.84314 158.628 8.55705C157.85 8.42116 155.884 8.36394 155.136 8.44976ZM157.9 13.1345C159.139 13.4707 159.895 14.1144 160.521 15.3517C160.723 15.7665 161.112 16.8823 161.22 17.3686L161.27 17.6047H156.367H151.464V17.3972C151.464 17.104 151.665 16.1241 151.795 15.7808C152.32 14.4219 153.602 13.392 155.208 13.0558C155.805 12.9342 157.31 12.9771 157.9 13.1345Z" fill="white"/>
</svg>
