<svg width="188" height="42" viewBox="0 0 188 42" fill="none" xmlns="http://www.w3.org/2000/svg">
<path d="M17.8152 0.265255C11.5271 1.37017 5.6803 5.56883 2.67415 11.1486C1.21244 13.8557 0.136841 17.9715 0.136841 20.8995C0.136841 26.7279 2.97752 32.8601 7.47296 36.7273C8.05213 37.2522 8.60372 37.7218 8.68646 37.8322C9.12773 38.3018 12.4097 40.0697 13.9541 40.6498C25.8408 45.1247 39.079 37.556 41.6714 24.8219C42.9401 18.4687 40.7061 11.0105 36.1831 6.53563C33.0667 3.4695 30.3363 1.86738 26.4752 0.762466C24.2137 0.12714 19.9389 -0.121464 17.8152 0.265255ZM25.5926 3.44188C27.5232 3.91146 30.8051 5.48596 32.129 6.56325L33.0667 7.36431L32.322 8.33111C31.3843 9.54651 28.5988 11.6458 26.5303 12.7231C23.469 14.27 23.8827 14.4357 21.6764 10.7895C20.6008 9.02168 19.0563 6.64612 18.2841 5.54121C17.5119 4.43629 16.9603 3.4695 17.043 3.38663C17.374 3.05516 20.4077 2.77893 22.2004 2.91704C23.1932 2.97229 24.7101 3.22089 25.5926 3.44188ZM15.2504 7.06046C17.2361 9.98848 19.994 14.5186 19.994 14.8777C19.994 15.4854 13.4301 16.7008 7.77634 17.1428C5.5424 17.3085 3.63943 17.3638 3.52911 17.2533C3.17058 16.8942 4.68744 13.1099 5.9561 11.1486C6.67316 10.099 7.83149 8.63496 8.57614 7.94439C10.0378 6.56325 12.7406 4.65728 13.2646 4.65728C13.4577 4.65728 14.3402 5.73457 15.2504 7.06046ZM36.2659 11.2039C36.9002 12.1983 37.7276 13.9109 38.1137 14.9882C38.8307 17.0875 39.2996 20.6785 38.8307 20.6785C38.6653 20.6785 37.8655 20.5404 37.0657 20.3746C36.2383 20.2089 33.5355 20.0984 31.0258 20.0984H26.4752L25.7029 18.4134C25.2893 17.4743 24.9859 16.7008 25.0135 16.6732C25.0686 16.6456 26.2545 16.0102 27.6611 15.2644C30.3087 13.9109 33.177 11.7287 34.3629 10.2371C34.7214 9.76749 35.0524 9.38078 35.0799 9.38078C35.0799 9.35315 35.6315 10.1818 36.2659 11.2039ZM22.4486 19.3526C22.7795 20.126 22.945 20.8442 22.8347 20.9547C22.6968 21.0652 21.7039 21.4796 20.6008 21.8939C16.5466 23.4408 11.7202 27.3356 8.96225 31.258L7.63844 33.1364L6.618 31.8105C4.68744 29.2692 3.41879 25.8992 3.03268 22.1701L2.83962 20.4851L7.4178 20.1813C11.7478 19.8498 18.5599 18.8001 20.0216 18.2201C21.4281 17.64 21.8143 17.8333 22.4486 19.3526ZM36.7623 23.3303C37.9206 23.5789 38.9135 23.7999 38.9411 23.8275C38.9686 23.8551 38.8307 24.5181 38.6101 25.3191C38.0309 27.5566 36.6796 30.236 35.1903 32.1143C33.8665 33.7441 31.7153 35.871 31.3567 35.871C31.2464 35.871 30.8879 34.5451 30.5293 32.8878C30.1708 31.258 29.3986 28.4405 28.7918 26.5898C28.2127 24.7667 27.7162 23.1645 27.7162 23.0817C27.7162 22.695 34.6663 22.8883 36.7623 23.3303ZM25.3444 26.9489C26.4476 30.3188 27.5783 34.5728 27.8541 36.4787L28.0472 37.7494L26.5579 38.1637C25.7581 38.3847 24.7377 38.6609 24.2964 38.7438C22.8347 39.1029 18.3944 38.9372 16.6293 38.4952C14.616 37.9704 11.141 36.3406 10.4515 35.5672C9.98269 35.07 10.0103 34.9871 11.0307 33.5231C12.4924 31.3961 16.2156 27.9433 18.4771 26.6174C20.5456 25.4296 23.5242 24.0209 24.0482 23.9932C24.2137 23.9932 24.7928 25.3191 25.3444 26.9489Z" fill="white" fill-opacity="0.81"/>
<path d="M158.995 3.99255C155.924 5.51047 154.333 12.989 155.48 20.6897C156.109 24.8362 156.035 25.1324 154.37 25.1324C153.889 25.1324 153.519 24.9843 153.519 24.7621C153.519 24.0957 150.929 21.5412 149.819 21.0599C148.487 20.5046 147.747 20.9488 147.414 22.5778C147.081 24.0217 148.413 26.7614 149.856 27.6129C151.04 28.3163 151.188 29.0197 150.411 30.7968C149.227 33.6475 146.489 34.351 144.602 32.2777C142.604 30.0193 142.234 26.3541 143.677 22.7629C146.23 16.358 147.525 8.76844 146.489 6.25092C145.675 4.28873 143.048 3.43721 141.383 4.62193C139.2 6.13985 138.201 10.2864 138.201 18.3573C138.164 23.9106 138.127 24.3919 137.424 24.9102C136.351 25.7247 135.981 25.6507 135.463 24.4289C134.982 23.3183 132.022 21.0599 131.097 21.0599C130.801 21.0599 130.32 21.4671 130.024 21.9484C129.136 23.2812 129.876 25.6137 131.763 27.5018C133.206 28.9457 133.243 29.0197 132.799 30.4266C131.541 34.6842 127.323 34.7212 125.547 30.5006C124.881 28.8716 124.881 25.0213 125.547 23.7255C126.324 22.2076 127.915 17.1725 128.544 14.0997C129.247 10.6936 129.247 8.06502 128.581 6.43603C127.175 3.14103 122.957 3.95552 121.551 7.84288C120.589 10.4345 120.145 15.3584 120.404 19.9862L120.663 24.2808L119.664 25.0583C118.332 26.132 118.11 26.0949 117.814 24.7621C117.555 23.5404 115.816 21.9855 114.262 21.6152C112.967 21.282 112.079 22.2076 112.079 23.8736C112.079 25.4656 112.523 26.3911 114.114 28.0942C115.335 29.3529 115.335 29.427 114.854 30.8338C113.263 35.3506 109.082 35.0914 107.454 30.3896C106.64 27.909 106.751 25.9839 107.972 23.0961C109.859 18.5794 111.043 13.1741 110.895 9.65698C110.784 6.76923 110.71 6.51007 109.711 5.62154C108.268 4.3998 106.011 4.58491 104.827 6.0658C103.125 8.21311 102.274 13.6924 102.607 20.5416C102.829 25.7247 102.533 27.6499 100.905 30.8708C98.2039 36.2391 96.5759 34.7212 96.2059 26.6503C95.9469 21.282 95.7249 20.7267 93.8749 21.171C92.6539 21.5042 92.4689 22.0595 92.2469 26.0579C91.9879 30.5747 91.9139 30.8708 90.3969 32.5369C87.6959 35.4987 86.7709 34.2769 86.8449 27.872C86.9189 22.3187 86.7339 21.9855 83.2559 21.3931C81.5909 21.0969 80.5549 20.6526 79.7039 19.9122C77.3729 17.876 76.1889 18.6164 76.1889 22.1706C76.1519 29.7972 73.3769 35.9429 70.9719 33.7956C69.3439 32.3517 69.1589 31.204 70.0839 28.4274C71.9339 23.0221 72.5999 19.1347 72.4149 14.655C72.2299 10.2493 71.8229 8.87951 69.9729 6.8803C68.1229 4.91811 65.0149 5.80665 63.5719 8.73142C62.7579 10.3974 62.6839 10.9157 62.7209 16.321L62.7579 22.1706L61.9069 21.9484C61.4629 21.8374 60.1679 21.9855 59.0209 22.3187C51.1769 24.6141 52.1389 37.6089 60.2789 38.3864C63.0169 38.6456 64.6079 38.2013 66.2359 36.7204L67.6789 35.4246L68.4559 36.3872C72.0819 41.015 77.2619 36.7204 79.1119 27.5388C79.4819 25.6137 79.9629 24.2068 80.2219 24.2438C80.4439 24.2808 80.9249 24.3179 81.2949 24.3549C82.5529 24.466 82.8859 25.0213 83.0709 27.3907C83.4039 32.4628 83.6259 33.8326 84.3289 35.3876C85.6979 38.4975 88.8059 38.6826 91.8769 35.8689L93.4309 34.425L94.0969 35.5357C94.9479 36.9795 96.9829 37.8681 98.6479 37.5349C100.35 37.2387 102.126 35.5727 103.199 33.3143C103.68 32.2777 104.198 31.4262 104.309 31.4262C104.457 31.4262 104.679 31.9075 104.79 32.4998C105.086 33.9067 107.121 36.2021 108.638 36.8315C112.523 38.4604 116.408 36.2021 117.851 31.4632C118.369 29.6861 118.702 29.2419 119.849 28.5755L121.255 27.835L122.217 30.4636C123.364 33.5365 124.992 35.7578 126.731 36.4612C130.357 37.9792 134.427 35.6838 135.685 31.3892C136.166 29.6861 136.536 29.1678 137.683 28.5384C139.311 27.5758 139.459 27.5388 139.459 28.2793C139.459 29.427 141.087 33.0181 142.16 34.2399C143.603 35.9059 144.972 36.6093 146.859 36.6093C150.152 36.6093 152.742 34.425 153.741 30.7598C154.259 28.8716 154.481 28.5755 155.517 28.2423L156.738 27.872L157.922 30.3896C160.586 35.9059 164.804 37.683 168.874 34.9063L170.28 33.9807L171.982 34.6842C177.347 36.9795 182.86 35.4616 186.153 30.7228C186.93 29.6121 187.559 28.4274 187.559 28.0942C187.559 27.4278 186.227 25.5026 185.746 25.5026C185.598 25.5026 185.154 26.206 184.71 27.0946C182.897 30.8338 180.455 32.5369 176.94 32.5369C173.647 32.5369 173.499 32.2037 175.645 30.0564C177.865 27.835 178.642 26.3911 178.938 24.0957C179.197 21.8003 178.383 19.8382 176.755 18.8385C173.462 16.8393 168.8 19.2458 167.579 23.6144C167.061 25.5396 167.135 28.6495 167.764 30.1674C168.282 31.4262 168.282 31.4632 167.098 32.1666C165.581 33.0922 164.434 33.0922 163.139 32.1666C162.066 31.3892 160.179 28.0571 160.179 26.9094C160.179 26.5392 160.771 25.4285 161.474 24.4289C165.655 18.6164 166.728 5.65856 163.176 4.17766C161.4 3.47423 160.142 3.40019 158.995 3.99255ZM161.659 7.17648C162.473 8.13906 162.584 12.6188 161.844 15.5806C161.215 18.2462 159.661 21.9855 159.032 22.3927C158.44 22.7259 158.181 20.5416 158.144 15.6916C158.144 11.8783 158.292 10.5085 158.81 9.13867C159.698 6.84328 160.771 6.10283 161.659 7.17648ZM143.751 9.06462C144.047 10.6196 143.418 14.655 142.308 18.0981L141.531 20.5046L141.235 18.6534C140.865 16.1359 141.457 9.76805 142.234 8.62035C143.048 7.39861 143.455 7.50968 143.751 9.06462ZM125.954 9.32378C126.213 10.6196 125.732 13.9886 124.807 17.3577C123.956 20.5046 123.882 20.6156 123.549 19.7641C122.772 17.876 123.475 9.95316 124.548 8.76844C125.399 7.80586 125.695 7.91693 125.954 9.32378ZM107.787 11.286C107.787 13.9886 106.307 20.6897 105.752 20.6897C105.308 20.6897 105.345 13.1001 105.826 11.0638C106.64 7.50968 107.824 7.65777 107.787 11.286ZM68.3449 9.65698C68.8629 10.3234 69.5289 14.1367 69.5289 16.6542C69.5289 20.2084 68.0119 26.3541 67.3089 25.6507C66.7909 25.1324 65.7919 20.7637 65.5699 18.0981C65.3109 14.8401 65.6809 11.8413 66.5689 10.3974C67.3459 9.10164 67.7529 8.95356 68.3449 9.65698ZM175.275 21.8744C175.867 22.4667 175.83 24.2068 175.201 25.4285C174.905 25.9839 173.906 27.1686 172.981 28.0571L171.316 29.6861L170.909 28.6865C170.428 27.3537 170.428 24.9102 170.946 23.9106C172.093 21.6893 174.128 20.7267 175.275 21.8744ZM63.2759 25.7988C63.5719 26.169 64.3119 27.6129 64.8669 29.0567C66.0139 32.0926 65.8659 32.9441 63.9789 34.499C61.7589 36.3872 58.5399 35.6097 57.1339 32.9071C55.8389 30.4266 57.0229 26.2801 59.2799 25.3175C60.6489 24.6881 62.4249 24.9473 63.2759 25.7988Z" fill="white"/>
<path d="M92.1361 13.8774C91.1371 15.1362 91.1741 15.8766 92.1361 17.1354C93.1721 18.4682 95.2071 18.3571 96.2801 16.9133C98.2781 14.2106 94.2081 11.2488 92.1361 13.8774Z" fill="white"/>
</svg>
