<svg width="24" height="24" viewBox="0 0 24 24" fill="none" xmlns="http://www.w3.org/2000/svg">
<path d="M11.46 19H5V20H19V19H11.46ZM21.5 18H2.5C1.83696 18 1.20107 17.7366 0.732233 17.2678C0.263392 16.7989 0 16.163 0 15.5V5.5C0 4.83696 0.263392 4.20107 0.732233 3.73223C1.20107 3.26339 1.83696 3 2.5 3H21.5C21.8283 3 22.1534 3.06466 22.4567 3.1903C22.76 3.31594 23.0356 3.50009 23.2678 3.73223C23.4999 3.96438 23.6841 4.23998 23.8097 4.54329C23.9353 4.84661 24 5.1717 24 5.5V15.5C24 15.8283 23.9353 16.1534 23.8097 16.4567C23.6841 16.76 23.4999 17.0356 23.2678 17.2678C23.0356 17.4999 22.76 17.6841 22.4567 17.8097C22.1534 17.9353 21.8283 18 21.5 18ZM21.5 17C21.8978 17 22.2794 16.842 22.5607 16.5607C22.842 16.2794 23 15.8978 23 15.5V5.5C23 5.10218 22.842 4.72064 22.5607 4.43934C22.2794 4.15804 21.8978 4 21.5 4H2.5C2.10218 4 1.72064 4.15804 1.43934 4.43934C1.15804 4.72064 1 5.10218 1 5.5V15.5C1 15.8978 1.15804 16.2794 1.43934 16.5607C1.72064 16.842 2.10218 17 2.5 17H21.5ZM10 13.5V7.5C9.99998 7.41153 10.0234 7.32465 10.068 7.24821C10.1125 7.17177 10.1765 7.10851 10.2535 7.06489C10.3304 7.02128 10.4176 6.99886 10.5061 6.99993C10.5945 7.001 10.6811 7.02553 10.757 7.071L15.757 10.071C15.8312 10.1154 15.8925 10.1782 15.9352 10.2534C15.9778 10.3286 16.0002 10.4136 16.0002 10.5C16.0002 10.5864 15.9778 10.6714 15.9352 10.7466C15.8925 10.8218 15.8312 10.8846 15.757 10.929L10.757 13.929C10.6811 13.9745 10.5945 13.999 10.5061 14.0001C10.4176 14.0011 10.3304 13.9787 10.2535 13.9351C10.1765 13.8915 10.1125 13.8282 10.068 13.7518C10.0234 13.6754 9.99998 13.5885 10 13.5ZM14.528 10.5L11 8.383V12.617L14.528 10.5ZM5 5V6H3.5C3.36739 6 3.24021 6.05268 3.14645 6.14645C3.05268 6.24021 3 6.36739 3 6.5V8H2V6.5C2 6.10218 2.15804 5.72064 2.43934 5.43934C2.72064 5.15804 3.10218 5 3.5 5H5ZM19 16V15H20.5C20.6326 15 20.7598 14.9473 20.8536 14.8536C20.9473 14.7598 21 14.6326 21 14.5V13H22V14.5C22 14.8978 21.842 15.2794 21.5607 15.5607C21.2794 15.842 20.8978 16 20.5 16H19Z" fill="#029AAD"/>
</svg>
