<svg width="158" height="71" viewBox="0 0 158 71" fill="none" xmlns="http://www.w3.org/2000/svg">
<g filter="url(#filter0_dd_412_1133)">
<rect x="3.00824" y="0.000366211" width="151.981" height="70" rx="8" fill="white"/>
<path d="M59.7101 24.4415H53.2641V32.8352H46.554V24.4415H40.1079V45.5592H46.554V37.2526H53.2641V45.5592H59.7101V24.4415ZM82.1333 41.3159V24.4415H75.6872V45.5592H87.3429L88.3122 41.3159H82.1333ZM70.9217 24.4415H64.4757V45.5592H70.9217V24.4415ZM97.054 24.4415H90.6109V45.5592H97.054V24.4415ZM128.834 29.8312C128.834 28.6819 129.983 28.1507 131.835 28.1507C133.867 28.1507 136.075 28.5948 137.576 29.216L137.048 24.6186C135.367 24.2645 133.867 24.0004 131.133 24.0004C125.923 24.0004 122.391 26.056 122.391 30.3624C122.391 37.7838 132.459 36.2833 132.459 39.7284C132.459 41.0518 131.484 41.757 129.101 41.757C126.985 41.757 123.714 41.0518 121.773 40.0795L122.481 44.941C124.423 45.6493 127.07 46.0004 129.191 46.0004C134.575 46.0004 138.989 44.2328 138.989 38.9301C138.989 31.8659 128.834 33.1893 128.834 29.8312ZM110.651 40.5236C116.65 40.5236 120.449 37.4296 120.449 32.0399C120.449 26.122 116.389 24.0004 109.766 24.0004C107.206 24.0004 104.115 24.1774 101.91 24.4415V45.5592H108.356V40.5236H110.651ZM114.093 32.13C114.093 34.8668 112.77 36.7244 109.412 36.7244H108.356V27.9976C108.731 27.9766 109.082 27.9766 109.412 27.9766C112.59 27.9766 114.093 29.4771 114.093 32.13ZM27.75 40.5236C33.7519 40.5236 37.5481 37.4296 37.5481 32.0399C37.5481 26.122 33.4878 24.0004 26.8677 24.0004C24.3049 24.0004 21.2169 24.1774 19.0082 24.4415V45.5592H25.4543V40.5236H27.75ZM31.1951 32.13C31.1951 34.8668 29.8687 36.7244 26.5136 36.7244H25.4543V27.9976C25.8294 27.9766 26.1835 27.9766 26.5136 27.9766C29.6916 27.9766 31.1951 29.4771 31.1951 32.13Z" fill="#0B5ED7"/>
</g>
<defs>
<filter id="filter0_dd_412_1133" x="0.00823975" y="-1.99963" width="157.981" height="76" filterUnits="userSpaceOnUse" color-interpolation-filters="sRGB">
<feFlood flood-opacity="0" result="BackgroundImageFix"/>
<feColorMatrix in="SourceAlpha" type="matrix" values="0 0 0 0 0 0 0 0 0 0 0 0 0 0 0 0 0 0 127 0" result="hardAlpha"/>
<feMorphology radius="1" operator="erode" in="SourceAlpha" result="effect1_dropShadow_412_1133"/>
<feOffset dy="1"/>
<feGaussianBlur stdDeviation="1"/>
<feComposite in2="hardAlpha" operator="out"/>
<feColorMatrix type="matrix" values="0 0 0 0 0 0 0 0 0 0 0 0 0 0 0 0 0 0 0.1 0"/>
<feBlend mode="normal" in2="BackgroundImageFix" result="effect1_dropShadow_412_1133"/>
<feColorMatrix in="SourceAlpha" type="matrix" values="0 0 0 0 0 0 0 0 0 0 0 0 0 0 0 0 0 0 127 0" result="hardAlpha"/>
<feOffset dy="1"/>
<feGaussianBlur stdDeviation="1.5"/>
<feComposite in2="hardAlpha" operator="out"/>
<feColorMatrix type="matrix" values="0 0 0 0 0 0 0 0 0 0 0 0 0 0 0 0 0 0 0.1 0"/>
<feBlend mode="normal" in2="effect1_dropShadow_412_1133" result="effect2_dropShadow_412_1133"/>
<feBlend mode="normal" in="SourceGraphic" in2="effect2_dropShadow_412_1133" result="shape"/>
</filter>
</defs>
</svg>
