<svg width="174" height="71" viewBox="0 0 174 71" fill="none" xmlns="http://www.w3.org/2000/svg">
<g filter="url(#filter0_dd_412_1121)">
<rect x="3.10547" y="0.000366211" width="167.21" height="70" rx="8" fill="white"/>
<path d="M28.0801 39.0614C28.2662 39.5473 28.2072 40.1699 28.1164 40.5473C27.9576 41.2171 27.5221 41.901 26.2335 41.901C25.0266 41.901 24.2915 41.1746 24.2915 40.0803V38.1322H19.1055V39.6793C19.1055 44.1604 22.4948 45.5142 26.1291 45.5142C29.6228 45.5142 32.4994 44.2783 32.9577 40.9246C33.1936 39.1888 33.0212 38.052 32.9395 37.6322C32.1228 33.4247 24.7906 32.17 24.2416 29.8162C24.1654 29.4691 24.1592 29.1093 24.2235 28.7596C24.3596 28.1134 24.7816 27.4106 25.9885 27.4106C27.1228 27.4106 27.7807 28.137 27.7807 29.2313V30.4766H32.6038V29.0615C32.6038 24.6842 28.8242 24.0002 26.0928 24.0002C22.6536 24.0002 19.845 25.1842 19.3323 28.4625C19.1962 29.3587 19.1735 30.1606 19.3777 31.17C20.2171 35.2737 27.0819 36.4624 28.0801 39.0614Z" fill="#034EA2"/>
<path d="M39.7954 24.6417L36.2109 44.7311H41.4333L44.0785 26.5001H44.1874L46.76 44.7311H51.9552L48.3934 24.637L39.7954 24.6417ZM68.9925 24.6417L66.6105 40H66.497L64.1195 24.6417H56.2383L55.8118 44.7311H60.6485L60.7665 26.67H60.8754L64.1014 44.7311H69.0061L72.2367 26.6747H72.341L72.4635 44.7311H77.2957L76.8692 24.637L68.9925 24.6417Z" fill="#034EA2"/>
<path d="M91.334 39.5477C91.5201 40.0336 91.4611 40.6562 91.3703 41.0336C91.2115 41.7034 90.776 42.3873 89.4874 42.3873C88.2805 42.3873 87.5454 41.6609 87.5454 40.5666V38.6185H82.3594V40.1657C82.3594 44.6467 85.7487 46.0005 89.383 46.0005C92.8767 46.0005 95.7533 44.7647 96.2116 41.4109C96.4475 39.6751 96.2751 38.5383 96.1934 38.1185C95.3767 33.911 88.0445 32.6563 87.4955 30.3026C87.4193 29.9554 87.4131 29.5957 87.4774 29.246C87.6135 28.5997 88.0355 27.8969 89.2424 27.8969C90.3767 27.8969 91.0346 28.6233 91.0346 29.7177V30.9629H95.8577V29.5478C95.8577 25.1705 92.0781 24.4866 89.3467 24.4866C85.9075 24.4866 83.0989 25.6705 82.5862 28.9488C82.4501 29.845 82.4274 30.6469 82.6316 31.6563C83.471 35.76 90.3358 36.9487 91.334 39.5477Z" fill="#034EA2"/>
<path d="M107.129 41.7212C108.472 41.7212 108.884 40.759 108.98 40.2684C109.021 40.0514 109.025 39.759 109.025 39.4996V24.6412H113.916V39.042C113.917 39.4827 113.902 39.9233 113.871 40.3628C113.531 44.1127 110.681 45.3297 107.129 45.3297C103.571 45.3297 100.722 44.1127 100.382 40.3628C100.368 40.1646 100.332 39.4099 100.336 39.042V24.6364H105.227V39.4948C105.223 39.759 105.232 40.0514 105.273 40.2684C105.364 40.759 105.781 41.7212 107.129 41.7212ZM130.759 24.6412L131.022 40.4099H130.917L126.471 24.6412H119.302V44.5184H124.052L123.789 28.2025H123.894L128.662 44.5184H135.545V24.6412H130.759ZM147.433 41.5137C148.83 41.5137 149.32 40.5939 149.407 40.0514C149.447 39.8297 149.452 39.5467 149.452 39.2967V36.3722H147.469V33.4477H154.316V38.8345C154.316 39.2118 154.307 39.4854 154.248 40.1552C153.93 43.8156 150.877 45.1222 147.451 45.1222C144.025 45.1222 140.976 43.8156 140.654 40.1552C140.6 39.4854 140.586 39.2118 140.586 38.8345V30.3817C140.586 30.0232 140.632 29.3911 140.668 29.0609C141.099 25.3015 144.025 24.094 147.451 24.094C150.877 24.094 153.88 25.2921 154.234 29.0562C154.298 29.6977 154.28 30.377 154.28 30.377V31.0515H149.407V29.9241C149.407 29.9241 149.407 29.4525 149.348 29.16C149.257 28.7166 148.894 27.6977 147.415 27.6977C146.008 27.6977 145.595 28.6647 145.491 29.16C145.432 29.4241 145.409 29.7826 145.409 30.1081V39.292C145.409 39.5467 145.418 39.8297 145.455 40.0562C145.545 40.5939 146.035 41.5137 147.433 41.5137Z" fill="#034EA2"/>
</g>
<defs>
<filter id="filter0_dd_412_1121" x="0.105469" y="-1.99963" width="173.21" height="76" filterUnits="userSpaceOnUse" color-interpolation-filters="sRGB">
<feFlood flood-opacity="0" result="BackgroundImageFix"/>
<feColorMatrix in="SourceAlpha" type="matrix" values="0 0 0 0 0 0 0 0 0 0 0 0 0 0 0 0 0 0 127 0" result="hardAlpha"/>
<feMorphology radius="1" operator="erode" in="SourceAlpha" result="effect1_dropShadow_412_1121"/>
<feOffset dy="1"/>
<feGaussianBlur stdDeviation="1"/>
<feComposite in2="hardAlpha" operator="out"/>
<feColorMatrix type="matrix" values="0 0 0 0 0 0 0 0 0 0 0 0 0 0 0 0 0 0 0.1 0"/>
<feBlend mode="normal" in2="BackgroundImageFix" result="effect1_dropShadow_412_1121"/>
<feColorMatrix in="SourceAlpha" type="matrix" values="0 0 0 0 0 0 0 0 0 0 0 0 0 0 0 0 0 0 127 0" result="hardAlpha"/>
<feOffset dy="1"/>
<feGaussianBlur stdDeviation="1.5"/>
<feComposite in2="hardAlpha" operator="out"/>
<feColorMatrix type="matrix" values="0 0 0 0 0 0 0 0 0 0 0 0 0 0 0 0 0 0 0.1 0"/>
<feBlend mode="normal" in2="effect1_dropShadow_412_1121" result="effect2_dropShadow_412_1121"/>
<feBlend mode="normal" in="SourceGraphic" in2="effect2_dropShadow_412_1121" result="shape"/>
</filter>
</defs>
</svg>
