<svg width="16" height="17" viewBox="0 0 16 17" fill="none" xmlns="http://www.w3.org/2000/svg">
<path d="M2.6121 3.82578L0.1875 1.44117L1.24541 0.400391L3.66926 2.78573H15.0648C15.1813 2.78573 15.2962 2.81252 15.4004 2.86397C15.5046 2.91543 15.595 2.99012 15.6646 3.08208C15.7342 3.17405 15.7809 3.28074 15.8012 3.39365C15.8214 3.50655 15.8145 3.62255 15.7811 3.73237L13.9867 9.61664C13.9406 9.76827 13.8459 9.90114 13.7169 9.99564C13.5879 10.0901 13.4313 10.1411 13.2704 10.1411H4.10738V11.6122H12.3314V13.0833H3.35974C3.16146 13.0833 2.97129 13.0058 2.83108 12.8678C2.69087 12.7299 2.6121 12.5428 2.6121 12.3477V3.82578ZM4.10738 4.25683V8.67002H12.7143L14.06 4.25683H4.10738ZM3.73356 16.0254C3.43613 16.0254 3.15088 15.9091 2.94057 15.7023C2.73025 15.4953 2.6121 15.2147 2.6121 14.9221C2.6121 14.6295 2.73025 14.3488 2.94057 14.142C3.15088 13.935 3.43613 13.8188 3.73356 13.8188C4.031 13.8188 4.31625 13.935 4.52656 14.142C4.73688 14.3488 4.855 14.6295 4.855 14.9221C4.855 15.2147 4.73688 15.4953 4.52656 15.7023C4.31625 15.9091 4.031 16.0254 3.73356 16.0254ZM12.7052 16.0254C12.4078 16.0254 12.1226 15.9091 11.9122 15.7023C11.7019 15.4953 11.5838 15.2147 11.5838 14.9221C11.5838 14.6295 11.7019 14.3488 11.9122 14.142C12.1226 13.935 12.4078 13.8188 12.7052 13.8188C13.0027 13.8188 13.2879 13.935 13.4982 14.142C13.7086 14.3488 13.8267 14.6295 13.8267 14.9221C13.8267 15.2147 13.7086 15.4953 13.4982 15.7023C13.2879 15.9091 13.0027 16.0254 12.7052 16.0254Z" fill="white"/>
</svg>
